<?xml version="1.0" encoding="UTF-8"?>
<svg width="64px" height="64px" viewBox="0 0 64 64" version="1.1" xmlns="http://www.w3.org/2000/svg" xmlns:xlink="http://www.w3.org/1999/xlink">
    <!-- Generator: Sketch 52.6 (67491) - http://www.bohemiancoding.com/sketch -->
    <title>icon-adfree</title>
    <desc>Created with Sketch.</desc>
    <g id="Landing-Page" stroke="none" stroke-width="1" fill="none" fill-rule="evenodd">
        <g id="UGG_LandingPage_Boost_v1d" transform="translate(-582.000000, -2834.000000)">
            <g id="icon-adfree" transform="translate(582.000000, 2834.000000)">
                <path d="M18.8254996,36.7498855 L24.1321652,36.7498855 C24.2744672,36.7498855 24.3218083,36.6783955 24.2744672,36.5356947 L21.5679452,27.3570479 C21.5439961,27.2621002 21.508351,27.2204908 21.4610098,27.2322197 C21.4131117,27.244507 21.3774666,27.2855579 21.3540745,27.3570479 L18.6829191,36.5356947 C18.6589701,36.6783955 18.7063112,36.7498855 18.8254996,36.7498855 Z M26.6607401,44.6428292 L25.7348027,41.4643164 C25.6869046,41.3693688 25.6278674,41.3213364 25.5565772,41.3213364 L17.4364542,41.3213364 C17.365164,41.3213364 17.3055698,41.3693688 17.2585072,41.4643164 L16.3325698,44.6428292 C16.2612795,44.8810362 16.09475,45 15.8338167,45 L10.3848491,45 C10.2422687,45 10.1356118,44.9589491 10.0643216,44.8751717 C9.99303141,44.7919529 9.9807784,44.6668454 10.0286765,44.5001285 L17.6503249,20.3571708 C17.7213366,20.1192431 17.8756131,20 18.1131543,20 L24.8442319,20 C25.0814947,20 25.2360497,20.1192431 25.3073399,20.3571708 L32.9643549,44.5001285 C32.987747,44.5481608 33,44.6070842 33,44.6785742 C33,44.892765 32.8693941,45 32.6081823,45 L27.1592147,45 C26.8977244,45 26.7320303,44.8810362 26.6607401,44.6428292 Z M41.1188338,39.9286775 L44.8044029,39.9286775 C45.7581799,39.9286775 46.5337358,39.5893793 47.1299514,38.9105034 C47.726167,38.2321861 48.0364453,37.3215263 48.0605066,36.178524 L48.0605066,28.821476 C48.0605066,27.6787529 47.7563834,26.7678139 47.1481372,26.0892173 C46.5396113,25.4109 45.7464291,25.0716017 44.7685908,25.0716017 L41.1188338,25.0716017 C40.999087,25.0716017 40.9397732,25.1313629 40.9397732,25.2500475 L40.9397732,39.7499525 C40.9397732,39.8694749 40.999087,39.9286775 41.1188338,39.9286775 Z M35.1250626,44.8751717 C35.041128,44.7919529 35,44.6908616 35,44.5713392 L35,20.4286608 C35,20.3096969 35.041128,20.2088849 35.1250626,20.1251075 C35.2084376,20.0418887 35.3097187,20 35.4294655,20 L44.5537182,20 C46.4145487,20 48.0605066,20.3214258 49.4918716,20.9642773 C50.9229569,21.6074082 52.0322927,22.5242117 52.8193197,23.7144086 C53.6066264,24.905164 54,26.274086 54,27.821733 L54,37.1785463 C54,38.7264725 53.6066264,40.0956737 52.8193197,41.2855914 C52.0322927,42.4766261 50.9229569,43.3928711 49.4918716,44.0357227 C48.0605066,44.6785742 46.4145487,45 44.5537182,45 L35.4294655,45 C35.3097187,45 35.2084376,44.9589491 35.1250626,44.8751717 Z" id="Combined-Shape" fill="#FFFFFF"></path>
                <path d="M51.925069,51.9249979 C41.3754051,62.4746617 24.5460575,62.9035653 13.4773293,53.2256452 L53.2254319,13.4772582 C62.903352,24.5459864 62.4744484,41.375334 51.925069,51.9249979 M12.0751443,12.0753577 C22.6248082,1.5256938 39.4541558,1.09679018 50.5228841,10.7747103 L10.774497,50.5228129 C1.09686128,39.4540847 1.5257649,22.6247371 12.0751443,12.0753577 M54.6276168,9.37280978 C42.1305371,-3.12426993 21.8693918,-3.12426993 9.37259647,9.37280978 C-3.12419882,21.8693207 -3.12419882,42.1307505 9.37259647,54.6275457 C21.8693918,67.124341 42.1305371,67.124341 54.6276168,54.6275457 C67.1241277,42.1307505 67.1241277,21.8696051 54.6276168,9.37280978" id="Fill-5" fill="#DC4A5C"></path>
            </g>
        </g>
    </g>
</svg>