<?xml version="1.0" encoding="UTF-8"?>
<svg width="72px" height="54px" viewBox="0 0 72 54" version="1.1" xmlns="http://www.w3.org/2000/svg" xmlns:xlink="http://www.w3.org/1999/xlink">
    <!-- Generator: Sketch 52.6 (67491) - http://www.bohemiancoding.com/sketch -->
    <title>coming-soon</title>
    <desc>Created with Sketch.</desc>
    <defs>
        <linearGradient x1="50%" y1="0%" x2="50%" y2="100%" id="linearGradient-1">
            <stop stop-color="#FFCB00" offset="0%"></stop>
            <stop stop-color="#FF9B00" offset="100%"></stop>
        </linearGradient>
        <rect id="path-2" x="0" y="0" width="62" height="36" rx="4"></rect>
        <filter x="-8.1%" y="-5.6%" width="112.9%" height="122.2%" filterUnits="objectBoundingBox" id="filter-3">
            <feOffset dx="-1" dy="2" in="SourceAlpha" result="shadowOffsetOuter1"></feOffset>
            <feGaussianBlur stdDeviation="1" in="shadowOffsetOuter1" result="shadowBlurOuter1"></feGaussianBlur>
            <feColorMatrix values="0 0 0 0 0.0274509804   0 0 0 0 0.0274509804   0 0 0 0 0.125490196  0 0 0 0.407467165 0" type="matrix" in="shadowBlurOuter1"></feColorMatrix>
        </filter>
    </defs>
    <g id="Landing-Page" stroke="none" stroke-width="1" fill="none" fill-rule="evenodd">
        <g id="UGG_LandingPage_Boost_v1d" transform="translate(-1321.000000, -2819.000000)">
            <g id="coming-soon" transform="translate(1358.602443, 2844.410055) rotate(-345.000000) translate(-1358.602443, -2844.410055) translate(1327.602443, 2826.410055)">
                <g id="Rectangle-Copy-13">
                    <use fill="black" fill-opacity="1" filter="url(#filter-3)" xlink:href="#path-2"></use>
                    <use fill="url(#linearGradient-1)" fill-rule="evenodd" xlink:href="#path-2"></use>
                </g>
                <path d="M10.91,16.612 C10.1819964,16.612 9.54266942,16.4696681 8.992,16.185 C8.44133058,15.9003319 8.01666816,15.5013359 7.718,14.988 C7.41933184,14.4746641 7.27,13.8820034 7.27,13.21 L7.27,9.976 C7.27,9.30399664 7.41933184,8.7113359 7.718,8.198 C8.01666816,7.6846641 8.44133058,7.2880014 8.992,7.008 C9.54266942,6.7279986 10.1819964,6.588 10.91,6.588 C11.6286703,6.588 12.2609973,6.72099867 12.807,6.987 C13.3530027,7.25300133 13.7776651,7.63099755 14.081,8.121 C14.3843348,8.61100245 14.536,9.17799678 14.536,9.822 C14.536,9.90600042 14.4800006,9.95733324 14.368,9.976 L12.73,10.074 L12.702,10.074 C12.6086662,10.074 12.562,10.0226672 12.562,9.92 C12.562,9.42533086 12.4103348,9.02866816 12.107,8.73 C11.8036651,8.43133184 11.4046691,8.282 10.91,8.282 C10.4059975,8.282 10.0023348,8.43133184 9.699,8.73 C9.39566515,9.02866816 9.244,9.42533086 9.244,9.92 L9.244,13.294 C9.244,13.7793358 9.39566515,14.1713318 9.699,14.47 C10.0023348,14.7686682 10.4059975,14.918 10.91,14.918 C11.4046691,14.918 11.8036651,14.7686682 12.107,14.47 C12.4103348,14.1713318 12.562,13.7793358 12.562,13.294 C12.562,13.1913328 12.6179994,13.14 12.73,13.14 L14.368,13.21 C14.4146669,13.21 14.4543332,13.2239999 14.487,13.252 C14.5196668,13.2800001 14.536,13.3126665 14.536,13.35 C14.536,13.9940032 14.3843348,14.5633309 14.081,15.058 C13.7776651,15.5526691 13.3530027,15.935332 12.807,16.206 C12.2609973,16.476668 11.6286703,16.612 10.91,16.612 Z M19.464,16.654 C18.7359964,16.654 18.0943361,16.5046682 17.539,16.206 C16.9836639,15.9073318 16.5520015,15.4896693 16.244,14.953 C15.9359985,14.4163306 15.782,13.7980035 15.782,13.098 L15.782,10.102 C15.782,9.41132988 15.9359985,8.80000266 16.244,8.268 C16.5520015,7.73599734 16.9836639,7.32300147 17.539,7.029 C18.0943361,6.73499853 18.7359964,6.588 19.464,6.588 C20.201337,6.588 20.8476639,6.73499853 21.403,7.029 C21.9583361,7.32300147 22.3899985,7.73599734 22.698,8.268 C23.0060015,8.80000266 23.16,9.41132988 23.16,10.102 L23.16,13.098 C23.16,13.7980035 23.0060015,14.418664 22.698,14.96 C22.3899985,15.501336 21.9583361,15.9189985 21.403,16.213 C20.8476639,16.5070015 20.201337,16.654 19.464,16.654 Z M19.464,14.96 C19.9773359,14.96 20.3926651,14.7966683 20.71,14.47 C21.0273349,14.1433317 21.186,13.709336 21.186,13.168 L21.186,10.088 C21.186,9.54666396 21.0296682,9.11033499 20.717,8.779 C20.4043318,8.44766501 19.9866693,8.282 19.464,8.282 C18.9506641,8.282 18.5376682,8.44766501 18.225,8.779 C17.9123318,9.11033499 17.756,9.54666396 17.756,10.088 L17.756,13.168 C17.756,13.709336 17.9123318,14.1433317 18.225,14.47 C18.5376682,14.7966683 18.9506641,14.96 19.464,14.96 Z M30.972,6.812 C31.0186669,6.73733296 31.0839996,6.7 31.168,6.7 L32.806,6.7 C32.8526669,6.7 32.8923332,6.71633317 32.925,6.749 C32.9576668,6.78166683 32.974,6.8213331 32.974,6.868 L32.974,16.332 C32.974,16.3786669 32.9576668,16.4183332 32.925,16.451 C32.8923332,16.4836668 32.8526669,16.5 32.806,16.5 L31.168,16.5 C31.1213331,16.5 31.0816668,16.4836668 31.049,16.451 C31.0163332,16.4183332 31,16.3786669 31,16.332 L31,10.158 C31,10.1206665 30.9906668,10.102 30.972,10.102 C30.9533332,10.102 30.9346668,10.1159999 30.916,10.144 L29.432,12.468 C29.3853331,12.542667 29.3200004,12.58 29.236,12.58 L28.41,12.58 C28.3259996,12.58 28.2606669,12.542667 28.214,12.468 L26.73,10.144 C26.7113332,10.1159999 26.6926668,10.1043333 26.674,10.109 C26.6553332,10.1136667 26.646,10.1346665 26.646,10.172 L26.646,16.332 C26.646,16.3786669 26.6296668,16.4183332 26.597,16.451 C26.5643332,16.4836668 26.5246669,16.5 26.478,16.5 L24.84,16.5 C24.7933331,16.5 24.7536668,16.4836668 24.721,16.451 C24.6883332,16.4183332 24.672,16.3786669 24.672,16.332 L24.672,6.868 C24.672,6.8213331 24.6883332,6.78166683 24.721,6.749 C24.7536668,6.71633317 24.7933331,6.7 24.84,6.7 L26.478,6.7 C26.5620004,6.7 26.6273331,6.73733296 26.674,6.812 L28.774,10.074 C28.8020001,10.1300003 28.8299999,10.1300003 28.858,10.074 L30.972,6.812 Z M34.85,16.5 C34.8033331,16.5 34.7636668,16.4836668 34.731,16.451 C34.6983332,16.4183332 34.682,16.3786669 34.682,16.332 L34.682,6.868 C34.682,6.8213331 34.6983332,6.78166683 34.731,6.749 C34.7636668,6.71633317 34.8033331,6.7 34.85,6.7 L36.488,6.7 C36.5346669,6.7 36.5743332,6.71633317 36.607,6.749 C36.6396668,6.78166683 36.656,6.8213331 36.656,6.868 L36.656,16.332 C36.656,16.3786669 36.6396668,16.4183332 36.607,16.451 C36.5743332,16.4836668 36.5346669,16.5 36.488,16.5 L34.85,16.5 Z M43.992,6.868 C43.992,6.8213331 44.0083332,6.78166683 44.041,6.749 C44.0736668,6.71633317 44.1133331,6.7 44.16,6.7 L45.798,6.7 C45.8446669,6.7 45.8843332,6.71633317 45.917,6.749 C45.9496668,6.78166683 45.966,6.8213331 45.966,6.868 L45.966,16.332 C45.966,16.3786669 45.9496668,16.4183332 45.917,16.451 C45.8843332,16.4836668 45.8446669,16.5 45.798,16.5 L44.216,16.5 C44.1226662,16.5 44.0573335,16.462667 44.02,16.388 L40.394,10.396 C40.3753332,10.3679999 40.3566668,10.3563333 40.338,10.361 C40.3193332,10.3656667 40.31,10.3866665 40.31,10.424 L40.338,16.332 C40.338,16.3786669 40.3216668,16.4183332 40.289,16.451 C40.2563332,16.4836668 40.2166669,16.5 40.17,16.5 L38.532,16.5 C38.4853331,16.5 38.4456668,16.4836668 38.413,16.451 C38.3803332,16.4183332 38.364,16.3786669 38.364,16.332 L38.364,6.868 C38.364,6.8213331 38.3803332,6.78166683 38.413,6.749 C38.4456668,6.71633317 38.4853331,6.7 38.532,6.7 L40.114,6.7 C40.2073338,6.7 40.2726665,6.73733296 40.31,6.812 L43.922,12.776 C43.9406668,12.8040001 43.9593332,12.8156667 43.978,12.811 C43.9966668,12.8063333 44.006,12.7853335 44.006,12.748 L43.992,6.868 Z M51.118,16.612 C50.3993297,16.612 49.7646694,16.4673348 49.214,16.178 C48.6633306,15.8886652 48.2363348,15.4850026 47.933,14.967 C47.6296651,14.4489974 47.478,13.8493367 47.478,13.168 L47.478,10.032 C47.478,9.35066326 47.6296651,8.74866928 47.933,8.226 C48.2363348,7.70333072 48.6633306,7.29966809 49.214,7.015 C49.7646694,6.73033191 50.3993297,6.588 51.118,6.588 C51.8273369,6.588 52.4549973,6.7279986 53.001,7.008 C53.5470027,7.2880014 53.9716651,7.66833093 54.275,8.149 C54.5783348,8.62966907 54.73,9.16399706 54.73,9.752 L54.73,9.85 C54.73,9.8966669 54.7136668,9.93633317 54.681,9.969 C54.6483332,10.0016668 54.6086669,10.018 54.562,10.018 L52.924,10.018 C52.8773331,10.018 52.8376668,10.0016668 52.805,9.969 C52.7723332,9.93633317 52.756,9.8966669 52.756,9.85 L52.756,9.808 C52.756,9.37866452 52.6066682,9.01700147 52.308,8.723 C52.0093318,8.42899853 51.6126691,8.282 51.118,8.282 C50.6139975,8.282 50.2103348,8.43833177 49.907,8.751 C49.6036651,9.06366823 49.452,9.47199748 49.452,9.976 L49.452,13.224 C49.452,13.7280025 49.6153317,14.1363318 49.942,14.449 C50.2686683,14.7616682 50.6839975,14.918 51.188,14.918 C51.6733358,14.918 52.0606652,14.789668 52.35,14.533 C52.6393348,14.2763321 52.784,13.9193356 52.784,13.462 L52.784,12.832 C52.784,12.7853331 52.7606669,12.762 52.714,12.762 L51.146,12.762 C51.0993331,12.762 51.0596668,12.7456668 51.027,12.713 C50.9943332,12.6803332 50.978,12.6406669 50.978,12.594 L50.978,11.306 C50.978,11.2593331 50.9943332,11.2196668 51.027,11.187 C51.0596668,11.1543332 51.0993331,11.138 51.146,11.138 L54.562,11.138 C54.6086669,11.138 54.6483332,11.1543332 54.681,11.187 C54.7136668,11.2196668 54.73,11.2593331 54.73,11.306 L54.73,13.154 C54.73,13.8633369 54.5806682,14.4793307 54.282,15.002 C53.9833318,15.5246693 53.5610027,15.9236653 53.015,16.199 C52.4689973,16.4743347 51.8366703,16.612 51.118,16.612 Z M17.7,30.612 C16.9533296,30.612 16.3000028,30.4930012 15.74,30.255 C15.1799972,30.0169988 14.7483348,29.6763356 14.445,29.233 C14.1416651,28.7896645 13.99,28.2740029 13.99,27.686 L13.99,27.378 C13.99,27.3313331 14.0063332,27.2916668 14.039,27.259 C14.0716668,27.2263332 14.1113331,27.21 14.158,27.21 L15.754,27.21 C15.8006669,27.21 15.8403332,27.2263332 15.873,27.259 C15.9056668,27.2916668 15.922,27.3313331 15.922,27.378 L15.922,27.588 C15.922,27.9613352 16.0946649,28.2763321 16.44,28.533 C16.7853351,28.789668 17.2519971,28.918 17.84,28.918 C18.3346691,28.918 18.7033321,28.8130011 18.946,28.603 C19.1886679,28.3929989 19.31,28.1340015 19.31,27.826 C19.31,27.6019989 19.2353341,27.4130008 19.086,27.259 C18.9366659,27.1049992 18.7336679,26.9696673 18.477,26.853 C18.220332,26.7363328 17.8120028,26.5753344 17.252,26.37 C16.6266635,26.1553323 16.0970022,25.9360011 15.663,25.712 C15.2289978,25.4879989 14.8650015,25.1823353 14.571,24.795 C14.2769985,24.4076647 14.13,23.9293362 14.13,23.36 C14.13,22.7999972 14.2746652,22.3100021 14.564,21.89 C14.8533348,21.4699979 15.2546641,21.1480011 15.768,20.924 C16.2813359,20.6999989 16.8739966,20.588 17.546,20.588 C18.2553369,20.588 18.8876639,20.7139987 19.443,20.966 C19.9983361,21.2180013 20.4323318,21.5703311 20.745,22.023 C21.0576682,22.4756689 21.214,23.0006637 21.214,23.598 L21.214,23.808 C21.214,23.8546669 21.1976668,23.8943332 21.165,23.927 C21.1323332,23.9596668 21.0926669,23.976 21.046,23.976 L19.436,23.976 C19.3893331,23.976 19.3496668,23.9596668 19.317,23.927 C19.2843332,23.8943332 19.268,23.8546669 19.268,23.808 L19.268,23.696 C19.268,23.303998 19.1070016,22.9703347 18.785,22.695 C18.4629984,22.4196653 18.0220028,22.282 17.462,22.282 C17.0233311,22.282 16.6803346,22.3753324 16.433,22.562 C16.1856654,22.7486676 16.062,23.0053317 16.062,23.332 C16.062,23.5653345 16.1343326,23.7613325 16.279,23.92 C16.4236674,24.0786675 16.6383319,24.2209994 16.923,24.347 C17.2076681,24.4730006 17.6486637,24.6433323 18.246,24.858 C18.90867,25.1006679 19.4289981,25.3153324 19.807,25.502 C20.1850019,25.6886676 20.5256651,25.9663315 20.829,26.335 C21.1323348,26.7036685 21.284,27.1819971 21.284,27.77 C21.284,28.6473377 20.9620032,29.3403308 20.318,29.849 C19.6739968,30.3576692 18.8013388,30.612 17.7,30.612 Z M26.156,30.654 C25.4279964,30.654 24.7863361,30.5046682 24.231,30.206 C23.6756639,29.9073318 23.2440015,29.4896693 22.936,28.953 C22.6279985,28.4163306 22.474,27.7980035 22.474,27.098 L22.474,24.102 C22.474,23.4113299 22.6279985,22.8000027 22.936,22.268 C23.2440015,21.7359973 23.6756639,21.3230015 24.231,21.029 C24.7863361,20.7349985 25.4279964,20.588 26.156,20.588 C26.893337,20.588 27.5396639,20.7349985 28.095,21.029 C28.6503361,21.3230015 29.0819985,21.7359973 29.39,22.268 C29.6980015,22.8000027 29.852,23.4113299 29.852,24.102 L29.852,27.098 C29.852,27.7980035 29.6980015,28.418664 29.39,28.96 C29.0819985,29.501336 28.6503361,29.9189985 28.095,30.213 C27.5396639,30.5070015 26.893337,30.654 26.156,30.654 Z M26.156,28.96 C26.6693359,28.96 27.0846651,28.7966683 27.402,28.47 C27.7193349,28.1433317 27.878,27.709336 27.878,27.168 L27.878,24.088 C27.878,23.546664 27.7216682,23.110335 27.409,22.779 C27.0963318,22.447665 26.6786693,22.282 26.156,22.282 C25.6426641,22.282 25.2296682,22.447665 24.917,22.779 C24.6043318,23.110335 24.448,23.546664 24.448,24.088 L24.448,27.168 C24.448,27.709336 24.6043318,28.1433317 24.917,28.47 C25.2296682,28.7966683 25.6426641,28.96 26.156,28.96 Z M34.85,30.654 C34.1219964,30.654 33.4803361,30.5046682 32.925,30.206 C32.3696639,29.9073318 31.9380015,29.4896693 31.63,28.953 C31.3219985,28.4163306 31.168,27.7980035 31.168,27.098 L31.168,24.102 C31.168,23.4113299 31.3219985,22.8000027 31.63,22.268 C31.9380015,21.7359973 32.3696639,21.3230015 32.925,21.029 C33.4803361,20.7349985 34.1219964,20.588 34.85,20.588 C35.587337,20.588 36.2336639,20.7349985 36.789,21.029 C37.3443361,21.3230015 37.7759985,21.7359973 38.084,22.268 C38.3920015,22.8000027 38.546,23.4113299 38.546,24.102 L38.546,27.098 C38.546,27.7980035 38.3920015,28.418664 38.084,28.96 C37.7759985,29.501336 37.3443361,29.9189985 36.789,30.213 C36.2336639,30.5070015 35.587337,30.654 34.85,30.654 Z M34.85,28.96 C35.3633359,28.96 35.7786651,28.7966683 36.096,28.47 C36.4133349,28.1433317 36.572,27.709336 36.572,27.168 L36.572,24.088 C36.572,23.546664 36.4156682,23.110335 36.103,22.779 C35.7903318,22.447665 35.3726693,22.282 34.85,22.282 C34.3366641,22.282 33.9236682,22.447665 33.611,22.779 C33.2983318,23.110335 33.142,23.546664 33.142,24.088 L33.142,27.168 C33.142,27.709336 33.2983318,28.1433317 33.611,28.47 C33.9236682,28.7966683 34.3366641,28.96 34.85,28.96 Z M45.686,20.868 C45.686,20.8213331 45.7023332,20.7816668 45.735,20.749 C45.7676668,20.7163332 45.8073331,20.7 45.854,20.7 L47.492,20.7 C47.5386669,20.7 47.5783332,20.7163332 47.611,20.749 C47.6436668,20.7816668 47.66,20.8213331 47.66,20.868 L47.66,30.332 C47.66,30.3786669 47.6436668,30.4183332 47.611,30.451 C47.5783332,30.4836668 47.5386669,30.5 47.492,30.5 L45.91,30.5 C45.8166662,30.5 45.7513335,30.462667 45.714,30.388 L42.088,24.396 C42.0693332,24.3679999 42.0506668,24.3563333 42.032,24.361 C42.0133332,24.3656667 42.004,24.3866665 42.004,24.424 L42.032,30.332 C42.032,30.3786669 42.0156668,30.4183332 41.983,30.451 C41.9503332,30.4836668 41.9106669,30.5 41.864,30.5 L40.226,30.5 C40.1793331,30.5 40.1396668,30.4836668 40.107,30.451 C40.0743332,30.4183332 40.058,30.3786669 40.058,30.332 L40.058,20.868 C40.058,20.8213331 40.0743332,20.7816668 40.107,20.749 C40.1396668,20.7163332 40.1793331,20.7 40.226,20.7 L41.808,20.7 C41.9013338,20.7 41.9666665,20.737333 42.004,20.812 L45.616,26.776 C45.6346668,26.8040001 45.6533332,26.8156667 45.672,26.811 C45.6906668,26.8063333 45.7,26.7853335 45.7,26.748 L45.686,20.868 Z" id="COMING-SOON-Copy" fill="#0B0B23"></path>
            </g>
        </g>
    </g>
</svg>