<svg xmlns="http://www.w3.org/2000/svg" width="1920" height="744" viewBox="0 0 1920 744"><defs><filter id="brnza" width="200%" height="200%" x="-50%" y="-50%"><feGaussianBlur in="SourceGraphic" result="FeGaussianBlur1018Out" stdDeviation="3.5 3.5"/></filter><mask id="brnzb"><path fill="#fff" d="M.001 340.408c4.654 1.73 9.472 3.23 14.445 4.488 82.728 20.925 173.905 90.478 202.614 154.563 28.709 64.084 142.593 92.888 253.076 64.009 110.482-28.88 220.343-45.458 351.295-14.465 130.952 30.992 234.82-18.832 337.978-88.346 103.16-69.515 277.959-150.02 388.441-178.899 110.484-28.88 252.493-124.574 315.577-212.653C1878.57 47.962 1897.916 24.464 1920-.001v744H.001z"/></mask></defs><g><g><path fill="#17172e" d="M.001 340.408c4.654 1.73 9.472 3.23 14.445 4.488 82.728 20.925 173.905 90.478 202.614 154.563 28.709 64.084 142.593 92.888 253.076 64.009 110.482-28.88 220.343-45.458 351.295-14.465 130.952 30.992 234.82-18.832 337.978-88.346 103.16-69.515 277.959-150.02 388.441-178.899 110.484-28.88 252.493-124.574 315.577-212.653C1878.57 47.962 1897.916 24.464 1920-.001v744H.001z"/><path fill="#0b0b23" fill-opacity=".17" stroke="#0b0b23" stroke-opacity=".17" stroke-width="4" d="M-7 762V-18h1934v780zm7.001-7.001h1920v-744c-22.085 24.465-41.431 47.963-56.574 69.106-63.084 88.08-205.093 183.773-315.577 212.653-110.482 28.88-285.28 109.384-388.441 178.9-103.159 69.513-207.026 119.337-337.978 88.345-130.952-30.993-240.813-14.415-351.295 14.465-110.483 28.88-224.367.075-253.076-64.01C188.35 446.375 97.174 376.822 14.446 355.897a140.057 140.057 0 0 1-14.445-4.488z" filter="url(#brnza)" mask="url(&quot;#brnzb&quot;)"/></g></g></svg>