<?xml version="1.0" encoding="UTF-8"?>
<svg width="109px" height="109px" viewBox="0 0 109 109" version="1.1" xmlns="http://www.w3.org/2000/svg" xmlns:xlink="http://www.w3.org/1999/xlink">
    <!-- Generator: Sketch 52.6 (67491) - http://www.bohemiancoding.com/sketch -->
    <title>save</title>
    <desc>Created with Sketch.</desc>
    <defs>
        <filter x="-7.6%" y="-7.7%" width="115.2%" height="115.4%" filterUnits="objectBoundingBox" id="filter-1">
            <feOffset dx="2" dy="2" in="SourceAlpha" result="shadowOffsetOuter1"></feOffset>
            <feGaussianBlur stdDeviation="1" in="shadowOffsetOuter1" result="shadowBlurOuter1"></feGaussianBlur>
            <feColorMatrix values="0 0 0 0 0.0431372549   0 0 0 0 0.0431372549   0 0 0 0 0.137254902  0 0 0 0.36328125 0" type="matrix" in="shadowBlurOuter1" result="shadowMatrixOuter1"></feColorMatrix>
            <feMerge>
                <feMergeNode in="shadowMatrixOuter1"></feMergeNode>
                <feMergeNode in="SourceGraphic"></feMergeNode>
            </feMerge>
        </filter>
        <linearGradient x1="50%" y1="0%" x2="50%" y2="100%" id="linearGradient-2">
            <stop stop-color="#FFCB00" offset="0%"></stop>
            <stop stop-color="#FF9B00" offset="100%"></stop>
        </linearGradient>
    </defs>
    <g id="Landing-Page" stroke="none" stroke-width="1" fill="none" fill-rule="evenodd">
        <g id="UGG_LandingPage_Boost_v1d" transform="translate(-586.000000, -3391.000000)">
            <g id="Group-18" transform="translate(453.000000, 3246.000000)">
                <g id="save" filter="url(#filter-1)" transform="translate(186.169696, 195.816143) rotate(-15.000000) translate(-186.169696, -195.816143) translate(133.669696, 143.816143)">
                    <path d="M44.4292135,2.75673914 C48.7890225,-0.918913046 55.9237737,-0.918913046 60.2840212,2.75673914 C64.6438302,6.43195065 72.8682046,9.43910213 78.5597753,9.43910213 C84.251346,9.43910213 89.7170084,14.045896 90.705302,19.6768136 C91.6935955,25.3081719 96.0696347,32.9221173 100.429444,36.5977695 C104.789691,40.272981 106.028458,47.3312379 103.182453,52.2835193 C100.336887,57.2349194 98.8169416,65.8932594 99.8052352,71.5246177 C100.793967,77.1555353 97.2263725,83.3624123 91.8778313,85.318559 C86.5297289,87.2738244 79.8252999,92.925013 76.9797339,97.8772944 C74.1337292,102.828694 67.4293002,105.280157 62.0807591,103.324451 C56.7326566,101.368745 47.9805782,101.368745 42.632037,103.324451 C37.2834959,105.280157 30.5795056,102.828694 27.7335009,97.8772944 C24.8879349,92.925013 18.1835059,87.2738244 12.8349648,85.318559 C7.48686231,83.3624123 3.91926738,77.1555353 4.90756092,71.5246177 C5.89585447,65.8932594 4.37634766,57.2349194 1.530343,52.2835193 C-1.31522301,47.3312379 -0.0764564887,40.272981 4.28335244,36.5977695 C8.64360003,32.9221173 13.0196393,25.3081719 14.0079328,19.6768136 C14.9962263,14.045896 20.4618888,9.43910213 26.1534595,9.43910213 C31.8450301,9.43910213 40.0694046,6.43195065 44.4292135,2.75673914" id="Fill-1" fill="url(#linearGradient-2)"></path>
                    <g id="Group-13" transform="translate(24.000000, 33.000000)" fill="#0B0B23">
                        <path d="M14.14,33.92 C14.540002,34.8800048 14.74,35.9099945 14.74,37.01 C14.74,38.0900054 14.540002,39.0999953 14.14,40.04 C13.6199974,41.3400065 12.7700059,42.3649963 11.59,43.115 C10.4099941,43.8650038 9.020008,44.24 7.42,44.24 C5.8599922,44.24 4.480006,43.8550039 3.28,43.085 C2.079994,42.3149962 1.2100027,41.2700066 0.67,39.95 C0.3499984,39.149996 0.1600003,38.2700048 0.1,37.31 C0.1,37.0699988 0.2199988,36.95 0.46,36.95 L4.78,36.95 C5.0200012,36.95 5.1499999,37.0699988 5.17,37.31 C5.2100002,37.8100025 5.329999,38.2899977 5.53,38.75 C5.6900008,39.150002 5.9299984,39.454999 6.25,39.665 C6.5700016,39.8750011 6.9499978,39.98 7.39,39.98 C8.2300042,39.98 8.8599979,39.6000038 9.28,38.84 C9.5600014,38.3399975 9.7,37.6800041 9.7,36.86 C9.7,36.059996 9.5600014,35.360003 9.28,34.76 C8.8599979,34.0199963 8.2200043,33.65 7.36,33.65 C7.1399989,33.65 6.89500135,33.7249993 6.625,33.875 C6.35499865,34.0250008 6.0100021,34.2499985 5.59,34.55 C5.4899995,34.6100003 5.4100003,34.64 5.35,34.64 C5.2299994,34.64 5.1400003,34.5800006 5.08,34.46 L2.95,31.46 C2.8899997,31.3599995 2.86,31.2800003 2.86,31.22 C2.86,31.0999994 2.9099995,31.0100003 3.01,30.95 L7.63,27.44 C7.6700002,27.3999998 7.68500005,27.3600002 7.675,27.32 C7.66499995,27.2799998 7.6300003,27.26 7.57,27.26 L1,27.26 C0.8999995,27.26 0.81500035,27.2250004 0.745,27.155 C0.67499965,27.0849997 0.64,27.0000005 0.64,26.9 L0.64,23.36 C0.64,23.2599995 0.67499965,23.1750004 0.745,23.105 C0.81500035,23.0349997 0.8999995,23 1,23 L14.08,23 C14.1800005,23 14.2649996,23.0349997 14.335,23.105 C14.4050003,23.1750004 14.44,23.2599995 14.44,23.36 L14.44,27.35 C14.44,27.5300009 14.3700007,27.6799994 14.23,27.8 L10.6,30.65 C10.5599998,30.6900002 10.5449999,30.7299998 10.555,30.77 C10.565,30.8100002 10.5999997,30.8399999 10.66,30.86 C12.260008,31.2800021 13.4199964,32.2999919 14.14,33.92 Z M30.58,33.92 C30.980002,34.8800048 31.18,35.9099945 31.18,37.01 C31.18,38.0900054 30.980002,39.0999953 30.58,40.04 C30.0599974,41.3400065 29.2100059,42.3649963 28.03,43.115 C26.8499941,43.8650038 25.460008,44.24 23.86,44.24 C22.2999922,44.24 20.920006,43.8550039 19.72,43.085 C18.519994,42.3149962 17.6500027,41.2700066 17.11,39.95 C16.7899984,39.149996 16.6000003,38.2700048 16.54,37.31 C16.54,37.0699988 16.6599988,36.95 16.9,36.95 L21.22,36.95 C21.4600012,36.95 21.5899999,37.0699988 21.61,37.31 C21.6500002,37.8100025 21.769999,38.2899977 21.97,38.75 C22.1300008,39.150002 22.3699984,39.454999 22.69,39.665 C23.0100016,39.8750011 23.3899978,39.98 23.83,39.98 C24.6700042,39.98 25.2999979,39.6000038 25.72,38.84 C26.0000014,38.3399975 26.14,37.6800041 26.14,36.86 C26.14,36.059996 26.0000014,35.360003 25.72,34.76 C25.2999979,34.0199963 24.6600043,33.65 23.8,33.65 C23.5799989,33.65 23.3350013,33.7249993 23.065,33.875 C22.7949986,34.0250008 22.4500021,34.2499985 22.03,34.55 C21.9299995,34.6100003 21.8500003,34.64 21.79,34.64 C21.6699994,34.64 21.5800003,34.5800006 21.52,34.46 L19.39,31.46 C19.3299997,31.3599995 19.3,31.2800003 19.3,31.22 C19.3,31.0999994 19.3499995,31.0100003 19.45,30.95 L24.07,27.44 C24.1100002,27.3999998 24.125,27.3600002 24.115,27.32 C24.1049999,27.2799998 24.0700003,27.26 24.01,27.26 L17.44,27.26 C17.3399995,27.26 17.2550003,27.2250004 17.185,27.155 C17.1149996,27.0849997 17.08,27.0000005 17.08,26.9 L17.08,23.36 C17.08,23.2599995 17.1149996,23.1750004 17.185,23.105 C17.2550003,23.0349997 17.3399995,23 17.44,23 L30.52,23 C30.6200005,23 30.7049996,23.0349997 30.775,23.105 C30.8450003,23.1750004 30.88,23.2599995 30.88,23.36 L30.88,27.35 C30.88,27.5300009 30.8100007,27.6799994 30.67,27.8 L27.04,30.65 C26.9999998,30.6900002 26.9849999,30.7299998 26.995,30.77 C27.005,30.8100002 27.0399997,30.8399999 27.1,30.86 C28.700008,31.2800021 29.8599964,32.2999919 30.58,33.92 Z M38.62,32.57 C37.7199955,32.57 36.8900038,32.3500022 36.13,31.91 C35.3699962,31.4699978 34.7700022,30.8750038 34.33,30.125 C33.8899978,29.3749963 33.67,28.5500045 33.67,27.65 C33.67,26.7499955 33.8899978,25.9300037 34.33,25.19 C34.7700022,24.4499963 35.3699962,23.8600022 36.13,23.42 C36.8900038,22.9799978 37.7199955,22.76 38.62,22.76 C39.5200045,22.76 40.3499962,22.9799978 41.11,23.42 C41.8700038,23.8600022 42.4699978,24.4549963 42.91,25.205 C43.3500022,25.9550038 43.57,26.7699956 43.57,27.65 C43.57,28.5500045 43.3500022,29.3749963 42.91,30.125 C42.4699978,30.8750038 41.8700038,31.4699978 41.11,31.91 C40.3499962,32.3500022 39.5200045,32.57 38.62,32.57 Z M37.27,44 C37.1299993,44 37.0400002,43.9600004 37,43.88 C36.9599998,43.7999996 36.9699997,43.7000006 37.03,43.58 L48.34,23.24 C48.4400005,23.0799992 48.589999,23 48.79,23 L51.52,23 C51.6600007,23 51.7499998,23.0399996 51.79,23.12 C51.8300002,23.2000004 51.8200003,23.2999994 51.76,23.42 L40.48,43.76 C40.3799995,43.9200008 40.230001,44 40.03,44 L37.27,44 Z M38.62,29.69 C39.1800028,29.69 39.654998,29.495002 40.045,29.105 C40.4350019,28.7149981 40.63,28.2300029 40.63,27.65 C40.63,27.0899972 40.4350019,26.610002 40.045,26.21 C39.654998,25.809998 39.1800028,25.61 38.62,25.61 C38.0599972,25.61 37.5850019,25.809998 37.195,26.21 C36.804998,26.610002 36.61,27.0899972 36.61,27.65 C36.61,28.2100028 36.804998,28.689998 37.195,29.09 C37.5850019,29.490002 38.0599972,29.69 38.62,29.69 Z M50.53,44.24 C49.6299955,44.24 48.8000038,44.0200022 48.04,43.58 C47.2799962,43.1399978 46.6800022,42.5450038 46.24,41.795 C45.7999978,41.0449963 45.58,40.2200045 45.58,39.32 C45.58,38.4399956 45.7999978,37.6250038 46.24,36.875 C46.6800022,36.1249963 47.2799962,35.5300022 48.04,35.09 C48.8000038,34.6499978 49.6299955,34.43 50.53,34.43 C51.4100044,34.43 52.2299962,34.6499978 52.99,35.09 C53.7500038,35.5300022 54.3499978,36.1249963 54.79,36.875 C55.2300022,37.6250038 55.45,38.4399956 55.45,39.32 C55.45,40.2200045 55.2300022,41.0449963 54.79,41.795 C54.3499978,42.5450038 53.7550037,43.1399978 53.005,43.58 C52.2549962,44.0200022 51.4300045,44.24 50.53,44.24 Z M50.53,41.39 C51.0900028,41.39 51.5599981,41.190002 51.94,40.79 C52.3200019,40.389998 52.51,39.9000029 52.51,39.32 C52.51,38.7599972 52.3150019,38.285002 51.925,37.895 C51.534998,37.5049981 51.0700027,37.31 50.53,37.31 C49.9699972,37.31 49.490002,37.5049981 49.09,37.895 C48.689998,38.285002 48.49,38.7599972 48.49,39.32 C48.49,39.9000029 48.684998,40.389998 49.075,40.79 C49.4650019,41.190002 49.9499971,41.39 50.53,41.39 Z" id="33%"></path>
                        <path d="M6.34,17.192 C5.09199376,17.192 4.00400464,16.992002 3.076,16.592 C2.14799536,16.191998 1.43200252,15.6320036 0.928,14.912 C0.42399748,14.1919964 0.172,13.3440049 0.172,12.368 L0.172,11.768 C0.172,11.6879996 0.19999972,11.6200003 0.256,11.564 C0.31200028,11.5079997 0.3799996,11.48 0.46,11.48 L2.596,11.48 C2.6760004,11.48 2.74399972,11.5079997 2.8,11.564 C2.85600028,11.6200003 2.884,11.6879996 2.884,11.768 L2.884,12.224 C2.884,12.9600037 3.21199672,13.5719976 3.868,14.06 C4.52400328,14.5480024 5.41999432,14.792 6.556,14.792 C7.53200488,14.792 8.26799752,14.5840021 8.764,14.168 C9.26000248,13.7519979 9.508,13.2160033 9.508,12.56 C9.508,12.1119978 9.37200136,11.7320016 9.1,11.42 C8.82799864,11.1079984 8.44000252,10.8240013 7.936,10.568 C7.43199748,10.3119987 6.67600504,9.99200192 5.668,9.608 C4.53199432,9.19199792 3.61200352,8.80000184 2.908,8.432 C2.20399648,8.06399816 1.61600236,7.56400316 1.144,6.932 C0.67199764,6.29999684 0.436,5.51200472 0.436,4.568 C0.436,3.15999296 0.94799488,2.04800408 1.972,1.232 C2.99600512,0.41599592 4.36399144,0.008 6.076,0.008 C7.276006,0.008 8.3359954,0.21599792 9.256,0.632 C10.1760046,1.04800208 10.8919974,1.62799628 11.404,2.372 C11.9160026,3.11600372 12.172,3.97599512 12.172,4.952 L12.172,5.36 C12.172,5.4400004 12.1440003,5.50799972 12.088,5.564 C12.0319997,5.62000028 11.9640004,5.648 11.884,5.648 L9.724,5.648 C9.6439996,5.648 9.57600028,5.62000028 9.52,5.564 C9.46399972,5.50799972 9.436,5.4400004 9.436,5.36 L9.436,5.096 C9.436,4.34399624 9.12800308,3.7080026 8.512,3.188 C7.89599692,2.6679974 7.04400544,2.408 5.956,2.408 C5.0759956,2.408 4.39200244,2.59199816 3.904,2.96 C3.41599756,3.32800184 3.172,3.84799664 3.172,4.52 C3.172,5.0000024 3.29999872,5.39199848 3.556,5.696 C3.81200128,6.00000152 4.19599744,6.27599876 4.708,6.524 C5.22000256,6.77200124 6.01199464,7.08799808 7.084,7.472 C8.22000568,7.90400216 9.1279966,8.29599824 9.808,8.648 C10.4880034,9.00000176 11.0719976,9.49199684 11.56,10.124 C12.0480024,10.7560032 12.292,11.5439953 12.292,12.488 C12.292,13.9280072 11.7600053,15.0719958 10.696,15.92 C9.63199468,16.7680042 8.1800092,17.192 6.34,17.192 Z M25.516,17 C25.3559992,17 25.2520002,16.9200008 25.204,16.76 L24.412,14.192 C24.3799998,14.1279997 24.3400002,14.096 24.292,14.096 L17.956,14.096 C17.9079998,14.096 17.8680002,14.1279997 17.836,14.192 L17.044,16.76 C16.9959998,16.9200008 16.8920008,17 16.732,17 L14.332,17 C14.2359995,17 14.1640002,16.9720003 14.116,16.916 C14.0679998,16.8599997 14.0599998,16.7760006 14.092,16.664 L19.3,0.44 C19.3480002,0.2799992 19.4519992,0.2 19.612,0.2 L22.612,0.2 C22.7720008,0.2 22.8759998,0.2799992 22.924,0.44 L28.156,16.664 C28.1720001,16.6960002 28.18,16.7359998 28.18,16.784 C28.18,16.9280007 28.0920009,17 27.916,17 L25.516,17 Z M18.58,11.768 C18.5639999,11.8640005 18.5959996,11.912 18.676,11.912 L23.548,11.912 C23.6440005,11.912 23.6760002,11.8640005 23.644,11.768 L21.172,3.728 C21.1559999,3.66399968 21.1320002,3.632 21.1,3.632 C21.0679998,3.632 21.0440001,3.66399968 21.028,3.728 L18.58,11.768 Z M34.3,17 C34.1399992,17 34.0360002,16.9200008 33.988,16.76 L28.948,0.536 L28.924,0.44 C28.924,0.2799992 29.0119991,0.2 29.188,0.2 L31.564,0.2 C31.7400009,0.2 31.8519998,0.2799992 31.9,0.44 L35.5,12.968 C35.5160001,13.0160002 35.5399998,13.04 35.572,13.04 C35.6040002,13.04 35.6279999,13.0160002 35.644,12.968 L39.22,0.44 C39.2680002,0.2799992 39.3799991,0.2 39.556,0.2 L41.884,0.2 C41.9800005,0.2 42.0519998,0.23199968 42.1,0.296 C42.1480002,0.36000032 42.1560002,0.43999952 42.124,0.536 L37.012,16.76 C36.9639998,16.9200008 36.8600008,17 36.7,17 L34.3,17 Z M55.756,2.312 C55.756,2.3920004 55.7280003,2.45999972 55.672,2.516 C55.6159997,2.57200028 55.5480004,2.6 55.468,2.6 L47.284,2.6 C47.2039996,2.6 47.164,2.6399996 47.164,2.72 L47.164,7.208 C47.164,7.2880004 47.2039996,7.328 47.284,7.328 L52.78,7.328 C52.8600004,7.328 52.9279997,7.35599972 52.984,7.412 C53.0400003,7.46800028 53.068,7.5359996 53.068,7.616 L53.068,9.44 C53.068,9.5200004 53.0400003,9.58799972 52.984,9.644 C52.9279997,9.70000028 52.8600004,9.728 52.78,9.728 L47.284,9.728 C47.2039996,9.728 47.164,9.7679996 47.164,9.848 L47.164,14.48 C47.164,14.5600004 47.2039996,14.6 47.284,14.6 L55.468,14.6 C55.5480004,14.6 55.6159997,14.6279997 55.672,14.684 C55.7280003,14.7400003 55.756,14.8079996 55.756,14.888 L55.756,16.712 C55.756,16.7920004 55.7280003,16.8599997 55.672,16.916 C55.6159997,16.9720003 55.5480004,17 55.468,17 L44.668,17 C44.5879996,17 44.5200003,16.9720003 44.464,16.916 C44.4079997,16.8599997 44.38,16.7920004 44.38,16.712 L44.38,0.488 C44.38,0.4079996 44.4079997,0.34000028 44.464,0.284 C44.5200003,0.22799972 44.5879996,0.2 44.668,0.2 L55.468,0.2 C55.5480004,0.2 55.6159997,0.22799972 55.672,0.284 C55.7280003,0.34000028 55.756,0.4079996 55.756,0.488 L55.756,2.312 Z" id="SAVE"></path>
                    </g>
                </g>
            </g>
        </g>
    </g>
</svg>