<?xml version="1.0" encoding="UTF-8"?>
<svg width="1920px" height="854px" viewBox="0 0 1920 854" version="1.1" xmlns="http://www.w3.org/2000/svg" xmlns:xlink="http://www.w3.org/1999/xlink">
    <!-- Generator: Sketch 52.6 (67491) - http://www.bohemiancoding.com/sketch -->
    <title>bottom-bg</title>
    <desc>Created with Sketch.</desc>
    <defs>
        <path d="M1920,3857 L1.59161573e-12,3857 L-1.13686838e-11,3343.40919 C4.65443104,3345.13858 9.47169709,3346.63967 14.4451197,3347.89756 C97.1732885,3368.82203 188.350066,3438.37471 217.058497,3502.45978 C245.76761,3566.54421 359.651452,3595.34849 470.135033,3566.46874 C580.617372,3537.58938 690.477688,3521.01167 821.429643,3552.00396 C952.381599,3582.99626 1056.24911,3533.17238 1159.40777,3463.65824 C1262.56836,3394.14308 1437.36672,3313.63862 1547.84905,3284.75926 C1658.33264,3255.87951 1800.34215,3160.18525 1863.42572,3072.10608 C1878.56887,3050.96293 1897.91475,3027.46516 1920,3003 L1920,3857 Z" id="path-1"></path>
        <filter x="-0.5%" y="-1.2%" width="101.0%" height="102.3%" filterUnits="objectBoundingBox" id="filter-2">
            <feMorphology radius="2" operator="erode" in="SourceAlpha" result="shadowSpreadInner1"></feMorphology>
            <feGaussianBlur stdDeviation="3.5" in="shadowSpreadInner1" result="shadowBlurInner1"></feGaussianBlur>
            <feOffset dx="0" dy="11" in="shadowBlurInner1" result="shadowOffsetInner1"></feOffset>
            <feComposite in="shadowOffsetInner1" in2="SourceAlpha" operator="arithmetic" k2="-1" k3="1" result="shadowInnerInner1"></feComposite>
            <feColorMatrix values="0.04     0     0     0     0
              0     0.04     0     0     0
              0     0     0.14     0     0
              0     0     0     0.17     0 " type="matrix" in="shadowInnerInner1"></feColorMatrix>
        </filter>
    </defs>
    <g id="Landing-Page" stroke="none" stroke-width="1" fill="none" fill-rule="evenodd">
        <g id="UGG_LandingPage_Boost_v1d" transform="translate(0.000000, -3003.000000)">
            <g id="bottom-bg">
                <use fill="#20223A" fill-rule="evenodd" xlink:href="#path-1"></use>
                <use fill="black" fill-opacity="1" filter="url(#filter-2)" xlink:href="#path-1"></use>
            </g>
        </g>
    </g>
</svg>
