<?xml version="1.0" encoding="UTF-8"?>
<svg width="14px" height="14px" viewBox="0 0 14 14" version="1.1" xmlns="http://www.w3.org/2000/svg" xmlns:xlink="http://www.w3.org/1999/xlink">
    <!-- Generator: Sketch 52.6 (67491) - http://www.bohemiancoding.com/sketch -->
    <title>icon-combos</title>
    <desc>Created with Sketch.</desc>
    <g id="Symbols" stroke="none" stroke-width="1" fill="none" fill-rule="evenodd">
        <path d="M7.65625,11.34 L6.34375,11.34 L6.34375,12.875 C6.34375,13.1875016 6.23437609,13.4531239 6.015625,13.671875 C5.79687391,13.8906261 5.53125156,14 5.21875,14 L1.125,14 C0.812498437,14 0.546876094,13.8906261 0.328125,13.671875 C0.109373906,13.4531239 0,13.1875016 0,12.875 L0,8.78125 C0,8.46874844 0.109373906,8.20312609 0.328125,7.984375 C0.546876094,7.76562391 0.812498437,7.65625 1.125,7.65625 L5.21875,7.65625 C5.53125156,7.65625 5.79687391,7.76562391 6.015625,7.984375 C6.23437609,8.20312609 6.34375,8.46874844 6.34375,8.78125 L6.34375,10.34 L7.65625,10.34 L7.65625,8.78125 C7.65625,8.46874844 7.76562391,8.20312609 7.984375,7.984375 C8.20312609,7.76562391 8.46874844,7.65625 8.78125,7.65625 L10.33,7.65625 L10.33,6.34375 L8.78125,6.34375 C8.46874844,6.34375 8.20312609,6.23437609 7.984375,6.015625 C7.76562391,5.79687391 7.65625,5.53125156 7.65625,5.21875 L7.65625,3.66 L6.34375,3.66 L6.34375,5.21875 C6.34375,5.53125156 6.23437609,5.79687391 6.015625,6.015625 C5.79687391,6.23437609 5.53125156,6.34375 5.21875,6.34375 L1.125,6.34375 C0.812498437,6.34375 0.546876094,6.23437609 0.328125,6.015625 C0.109373906,5.79687391 0,5.53125156 0,5.21875 L0,1.125 C0,0.812498438 0.109373906,0.546876094 0.328125,0.328125 C0.546876094,0.109373906 0.812498437,0 1.125,0 L5.21875,0 C5.53125156,0 5.79687391,0.109373906 6.015625,0.328125 C6.23437609,0.546876094 6.34375,0.812498438 6.34375,1.125 L6.34375,2.66 L7.65625,2.66 L7.65625,1.125 C7.65625,0.812498438 7.76562391,0.546876094 7.984375,0.328125 C8.20312609,0.109373906 8.46874844,0 8.78125,0 L12.875,0 C13.1875016,0 13.4531239,0.109373906 13.671875,0.328125 C13.8906261,0.546876094 14,0.812498438 14,1.125 L14,5.21875 C14,5.53125156 13.8906261,5.79687391 13.671875,6.015625 C13.4531239,6.23437609 13.1875016,6.34375 12.875,6.34375 L11.33,6.34375 L11.33,7.65625 L12.875,7.65625 C13.1875016,7.65625 13.4531239,7.76562391 13.671875,7.984375 C13.8906261,8.20312609 14,8.46874844 14,8.78125 L14,12.875 C14,13.1875016 13.8906261,13.4531239 13.671875,13.671875 C13.4531239,13.8906261 13.1875016,14 12.875,14 L8.78125,14 C8.46874844,14 8.20312609,13.8906261 7.984375,13.671875 C7.76562391,13.4531239 7.65625,13.1875016 7.65625,12.875 L7.65625,11.34 Z M5.21875,1.125 L1.125,1.125 L1.125,5.21875 L5.21875,5.21875 L5.21875,1.125 Z M12.875,1.125 L8.78125,1.125 L8.78125,5.21875 L12.875,5.21875 L12.875,1.125 Z M5.21875,8.78125 L1.125,8.78125 L1.125,12.875 L5.21875,12.875 L5.21875,8.78125 Z M12.875,8.78125 L8.78125,8.78125 L8.78125,12.875 L12.875,12.875 L12.875,8.78125 Z" id="icon-combos" fill="#FF9B00"></path>
    </g>
</svg>