<?xml version="1.0" encoding="UTF-8"?>
<svg width="70px" height="67px" viewBox="0 0 70 67" version="1.1" xmlns="http://www.w3.org/2000/svg" xmlns:xlink="http://www.w3.org/1999/xlink">
    <!-- Generator: Sketch 63.1 (92452) - https://sketch.com -->
    <title>Group 11 Copy</title>
    <desc>Created with Sketch.</desc>
    <g id="Landing-Page" stroke="none" stroke-width="1" fill="none" fill-rule="evenodd">
        <g id="UGG_LandingPage_Boost_v1a" transform="translate(-927.000000, -2575.000000)">
            <g id="features---color" transform="translate(453.000000, 2415.000000)">
                <g id="Group-11-Copy" transform="translate(474.000000, 160.000000)">
                    <polygon id="Fill-1" fill="#FFFFFF" points="35.49604 20.2486 35.49604 35.447 41.03536 35.447 41.03536 15 36.94596 15 31 16.68176 32.07364 21.03244"></polygon>
                    <path d="M55.19548,22.19256 C55.19548,23.671 54.12184,24.83204 52.35268,24.83204 C50.58352,24.83204 49.45284,23.70228 49.45284,22.16404 L49.45284,22.10608 C49.45284,20.53932 50.52556,19.38012 52.29564,19.38012 C54.0648,19.38012 55.19548,20.56784 55.19548,22.13552 L55.19548,22.19256 Z M52.09232,15 C47.45184,15 44,17.89984 44,22.39588 L44,22.45292 C44,26.42824 46.87132,28.8644 50.81536,28.8644 C52.61396,28.8644 54.0648,28.19556 55.10808,27.21116 C54.8468,29.82028 53.6002,31.445 51.27996,31.445 C49.65616,31.445 48.32124,30.92336 46.9302,29.82028 L44.2898,33.70728 C46.14636,35.1572 48.35068,36.11492 51.36736,36.11492 C57.45776,36.11492 60.76424,31.59036 60.76424,24.94888 L60.76424,24.89 C60.76424,21.14836 59.80652,18.82904 58.32716,17.37912 C56.78984,15.84088 55.05012,15 52.09232,15 L52.09232,15 Z" id="Fill-2" fill="#FFFFFF"></path>
                    <polygon id="Fill-4" fill="#FFFFFF" points="21.56548 8 13.97272 8 11.16304 8 7.13068 8 11.16304 13.01032 11.16304 52.34124 6 58.79504 11.16304 58.79504 13.13736 58.79504 19.97112 58.79504 21.56548 58.79504 41.98948 58.79504 48.21604 51.96128 21.56548 51.96128"></polygon>
                    <polygon id="Fill-6" fill="#3273FA" points="32 42.20708 56.74156 42.20708 58.61652 40 32 40"></polygon>
                    <path d="M66.78648,41.91612 L47.64772,64.032 L4.42796,64.032 C3.2108,64.032 2.21352,63.0384 2.21352,61.824 L2.21352,4.416 C2.21352,3.2016 3.2108,2.208 4.42796,2.208 L64.57296,2.208 C65.79104,2.208 66.78648,3.2016 66.78648,4.416 L66.78648,41.91612 Z M64.57296,-1.00186526e-12 L4.42796,-1.00186526e-12 C1.99272,-1.00186526e-12 0,1.9872 0,4.416 L0,61.824 C0,64.2528 1.99272,66.24 4.42796,66.24 L45.73688,66.24 L48.65696,66.24 L50.5678,64.032 L66.78648,45.29068 L69,42.73308 L69,39.35852 L69,4.416 C69,1.9872 67.0082,-1.00186526e-12 64.57296,-1.00186526e-12 L64.57296,-1.00186526e-12 Z" id="Fill-8" fill="#3273FA"></path>
                    <polygon id="Fill-11" fill="#3273FA" points="32 10.20708 60.09496 10.20708 60.09496 8 32 8"></polygon>
                    <path d="M67.08968,64.15968 L60.83644,64.15968 L67.08968,56.93308 L67.08968,64.15968 Z M57.91544,64.15968 L56,66.3732 L58.92008,66.3732 L67.08968,66.3732 L69.3032,66.3732 L69.3032,64.15968 L69.3032,54.37456 L69.3032,51 L67.08968,53.55852 L57.91544,64.15968 Z" id="Fill-13" fill="#3273FA"></path>
                </g>
            </g>
        </g>
    </g>
</svg>