<?xml version="1.0" encoding="UTF-8"?>
<svg width="145px" height="34px" viewBox="0 0 145 34" version="1.1" xmlns="http://www.w3.org/2000/svg" xmlns:xlink="http://www.w3.org/1999/xlink">
    <!-- Generator: Sketch 63.1 (92452) - https://sketch.com -->
    <title>boost-logo-white</title>
    <desc>Created with Sketch.</desc>
    <defs>
        <polygon id="path-1" points="0.158219633 0.20087446 18.5675582 0.20087446 18.5675582 24.2676101 0.158219633 24.2676101"></polygon>
    </defs>
    <g id="Home" stroke="none" stroke-width="1" fill="none" fill-rule="evenodd">
        <g id="UGG_LandingPage_Boost_v1e" transform="translate(-675.000000, -2079.000000)">
            <g id="Group-20" transform="translate(452.000000, 2072.000000)">
                <g id="boost-logo-white" transform="translate(223.000000, 7.000000)">
                    <path d="M54.9641846,9.60975277 L54.4696427,13.9975908 C54.4255388,14.1144335 54.4696427,14.1722184 54.6014723,14.1722184 L57.7668299,14.1722184 C58.6457745,14.1722184 59.3379404,13.9690801 59.8440506,13.5628035 C60.3494377,13.156527 60.6567189,12.5822413 60.7670991,11.8386737 C60.8545839,11.0724503 60.6899776,10.4808546 60.2725572,10.0626137 C59.8546548,9.64462739 59.2061108,9.4358888 58.3274071,9.4358888 L55.1620496,9.4358888 C55.0302199,9.4358888 54.9641846,9.49392831 54.9641846,9.60975277 M59.1022377,23.1220129 C59.6404015,22.611367 59.9098449,21.9029286 59.9098449,20.9974613 C59.9098449,20.3244066 59.7006527,19.8081604 59.2834733,19.4479591 C58.8655709,19.0882668 58.2616128,18.9082935 57.4699119,18.9082935 L54.0411361,18.9082935 C53.9307558,18.9082935 53.8760478,18.966333 53.8760478,19.0821574 L53.3157115,23.7138632 C53.3157115,23.8304513 53.3704196,23.8882363 53.4807998,23.8882363 L56.876799,23.8882363 C57.821297,23.8882363 58.5633509,23.6331679 59.1022377,23.1220129 M62.8440788,16.4006302 C64.4048262,17.3529364 65.1851998,18.8507631 65.1851998,20.893092 C65.1851998,21.1020852 65.1627864,21.4622865 65.1194055,21.9726778 C64.8333328,24.2945128 63.8878708,26.0244976 62.2837426,27.1613592 C60.6788913,28.2994937 58.6901194,28.8679245 56.3159807,28.8679245 L47.8094739,28.8679245 C47.6993347,28.8679245 47.61185,28.8279587 47.5460557,28.7462452 C47.4800203,28.6647862 47.4578479,28.5667809 47.4800203,28.4501928 L50.2166303,4.90829778 C50.2166303,4.79272788 50.2600111,4.69395889 50.3484599,4.61224536 C50.4359447,4.53155008 50.5347567,4.49056604 50.6448959,4.49056604 L58.8877434,4.49056604 C61.2394686,4.49056604 63.0255555,4.9319718 64.245522,5.81401963 C65.4654885,6.69683115 66.0754717,8.1124352 66.0754717,10.0626137 C66.0754717,10.3181912 66.0532993,10.7244678 66.0094364,11.2811889 C65.7236046,13.579859 64.6793307,15.2169296 62.8773375,16.191637 C62.7452668,16.2613863 62.7339396,16.3311355 62.8440788,16.4006302" id="Fill-1" fill="#FF9B00"></path>
                    <path d="M78.3972178,22.9855463 C79.1206166,22.2735146 79.5495776,21.3409092 79.6831244,20.1887214 L80.5515446,13.1702648 C80.5735176,13.0344509 80.5849923,12.8309778 80.5849923,12.5598457 C80.5849923,11.5655292 80.3120393,10.7744379 79.7666216,10.186324 C79.2207156,9.59870581 78.4807151,9.30502061 77.5456435,9.30502061 C76.5209711,9.30502061 75.6469356,9.66066471 74.9235369,10.3726964 C74.199894,11.084976 73.7714213,12.0170857 73.6378745,13.1702648 L72.8026579,20.1887214 C72.7801966,20.3468406 72.7692101,20.5731145 72.7692101,20.866304 C72.7692101,21.8616118 73.0363037,22.6410548 73.5709791,23.2058722 C74.1054103,23.771433 74.8285648,24.0539656 75.7419076,24.0539656 C76.7883088,24.0539656 77.673575,23.6973302 78.3972178,22.9855463 M69.4627678,26.833442 C68.0599163,25.4775334 67.3584906,23.6467717 67.3584906,21.3409092 C67.3584906,20.7763397 67.3804635,20.3359358 67.425386,20.0187062 L68.2601144,13.2376761 C68.4608008,11.5204231 69.0118338,9.99995166 69.9134576,8.67774868 C70.8153256,7.3555457 71.9730565,6.32727575 73.3871386,5.59219533 C74.8009766,4.85785841 76.376682,4.49056604 78.1135225,4.49056604 C79.7165721,4.49056604 81.1079488,4.79540384 82.2883851,5.40557511 C83.4683331,6.01574639 84.3758164,6.88044483 85.0103467,7.99917478 C85.6451211,9.11815256 85.9622642,10.4235027 85.9622642,11.9154731 C85.9622642,12.503587 85.940047,12.9442387 85.8956128,13.2376761 L85.0940881,20.0187062 C84.8934017,21.7820566 84.3423686,23.3305335 83.4405007,24.6638891 C82.5388768,25.9974925 81.3750423,27.0317105 79.9502179,27.7662952 C78.5251493,28.5006322 76.9328421,28.8679245 75.1742728,28.8679245 C72.7692101,28.8679245 70.8653751,28.1898463 69.4627678,26.833442" id="Fill-3" fill="#FF9B00"></path>
                    <path d="M98.2840103,22.9855463 C99.007409,22.2735146 99.43637,21.3409092 99.5699168,20.1887214 L100.438337,13.1702648 C100.46031,13.0344509 100.471785,12.8309778 100.471785,12.5598457 C100.471785,11.5655292 100.198832,10.7744379 99.6534141,10.186324 C99.107508,9.59870581 98.3675076,9.30502061 97.432436,9.30502061 C96.4077636,9.30502061 95.533728,9.66066471 94.8103293,10.3726964 C94.0866865,11.084976 93.6582137,12.0170857 93.524667,13.1702648 L92.6894503,20.1887214 C92.6669891,20.3468406 92.6560026,20.5731145 92.6560026,20.866304 C92.6560026,21.8616118 92.9230961,22.6410548 93.4577715,23.2058722 C93.9922027,23.771433 94.7153573,24.0539656 95.6287,24.0539656 C96.6751013,24.0539656 97.5603675,23.6973302 98.2840103,22.9855463 M89.3495602,26.833442 C87.9467088,25.4775334 87.245283,23.6467717 87.245283,21.3409092 C87.245283,20.7763397 87.267256,20.3359358 87.3121785,20.0187062 L88.1469068,13.2376761 C88.3475932,11.5204231 88.8986263,9.99995166 89.8002501,8.67774868 C90.7021181,7.3555457 91.859849,6.32727575 93.2739311,5.59219533 C94.687769,4.85785841 96.2634745,4.49056604 98.0000708,4.49056604 C99.6033645,4.49056604 100.994741,4.79540384 102.175178,5.40557511 C103.355126,6.01574639 104.262609,6.88044483 104.897139,7.99917478 C105.531914,9.11815256 105.849057,10.4235027 105.849057,11.9154731 C105.849057,12.503587 105.826839,12.9442387 105.782405,13.2376761 L104.980881,20.0187062 C104.780194,21.7820566 104.229161,23.3305335 103.327293,24.6638891 C102.425669,25.9974925 101.261835,27.0317105 99.8370104,27.7662952 C98.4119418,28.5006322 96.8196345,28.8679245 95.0610652,28.8679245 C92.6560026,28.8679245 90.7521676,28.1898463 89.3495602,26.833442" id="Fill-5" fill="#FF9B00"></path>
                    <path d="M109.298028,27.1489588 C107.853978,26.0028986 107.132075,24.4417184 107.132075,22.46716 C107.132075,22.2630842 107.154167,21.934323 107.199332,21.4798809 L107.299726,20.8328111 C107.322063,20.7198228 107.372382,20.62326 107.451175,20.5433718 C107.529232,20.4644791 107.624226,20.4241616 107.736647,20.4241616 L112.26983,20.4241616 C112.381761,20.4241616 112.4716,20.4644791 112.538365,20.5433718 C112.605622,20.62326 112.627713,20.7198228 112.605622,20.8328111 L112.538365,21.2417094 C112.448772,21.990566 112.734244,22.6433621 113.394781,23.1990955 C114.054827,23.7555755 114.989789,24.0330689 116.198687,24.0330689 C117.228398,24.0330689 117.995466,23.7896711 118.498907,23.3011334 C119.00284,22.8135912 119.254683,22.2745323 119.254683,21.6839567 C119.254683,21.1396715 119.019286,20.7138498 118.549227,20.4069894 C118.079168,20.1011245 117.228398,19.7208466 115.997164,19.2669022 L115.224942,18.9943863 C113.970879,18.540442 112.885202,18.0638502 111.967667,17.5643621 C111.049641,17.0656206 110.260237,16.3844552 109.600191,15.5213637 C108.939654,14.6590188 108.609508,13.6035484 108.609508,12.3554503 C108.609508,12.1737731 108.6316,11.8788586 108.676765,11.4699602 C108.855706,10.0630812 109.365039,8.8311599 110.204517,7.77568954 C111.044241,6.72046805 112.124026,5.9091421 113.445346,5.34171167 C114.765683,4.77453012 116.220779,4.49056604 117.810633,4.49056604 C119.355322,4.49056604 120.72647,4.76258422 121.924077,5.3073672 C123.121438,5.85239905 124.056647,6.63012715 124.72823,7.63930714 C125.399812,8.64998036 125.735849,9.81321273 125.735849,11.1297509 C125.735849,11.3338267 125.713021,11.6630857 125.668347,12.11703 L125.601336,12.5936218 C125.601336,12.7073568 125.556171,12.8036706 125.466823,12.88331 C125.37723,12.9624516 125.276591,13.0022713 125.164906,13.0022713 L120.665105,13.0022713 C120.552929,13.0022713 120.457936,12.9624516 120.379633,12.88331 C120.30084,12.8036706 120.273103,12.7073568 120.295686,12.5936218 L120.329068,12.3554503 C120.418416,11.5610478 120.166327,10.8572349 119.573538,10.2445096 C118.980257,9.63153544 118.124088,9.32517279 117.004538,9.32517279 C116.086511,9.32517279 115.359209,9.5352216 114.821894,9.95482146 C114.284579,10.3751679 114.016289,10.9592729 114.016289,11.7083806 C114.016289,12.11703 114.161357,12.4689364 114.452474,12.7636021 C114.743346,13.0592632 115.180022,13.3370054 115.762257,13.5980732 C116.344001,13.8588921 117.23969,14.2167715 118.448588,14.6702181 C119.81409,15.169955 120.871784,15.6012519 121.621914,15.9643576 C122.372044,16.3277122 123.07701,16.9123148 123.737547,17.7176678 C124.397593,18.5235186 124.72823,19.5620656 124.72823,20.8328111 C124.72823,21.0149861 124.705893,21.3094029 124.660973,21.7183012 C124.392193,23.9198317 123.401756,25.6621915 121.688925,26.9443852 C119.976586,28.2270766 117.821679,28.8679245 115.224942,28.8679245 C112.717552,28.8679245 110.742078,28.29477 109.298028,27.1489588" id="Fill-7" fill="#FF9B00"></path>
                    <g id="Group-11" transform="translate(126.377358, 4.490566)">
                        <mask id="mask-2" fill="white">
                            <use xlink:href="#path-1"></use>
                        </mask>
                        <g id="Clip-10"></g>
                        <path d="M18.491506,0.321253375 C18.5592237,0.40192484 18.5815483,0.499434273 18.5592237,0.613530364 L18.0504726,4.7051569 C18.0504726,4.81975561 18.0045832,4.91726505 17.914789,4.99693126 C17.8240026,5.07785404 17.7220539,5.1178128 17.609191,5.1178128 L11.8742678,5.1178128 C11.7385843,5.1178128 11.6706185,5.17511216 11.6706185,5.28945956 L9.43122023,23.8552055 C9.4083996,23.9703069 9.35754928,24.0670624 9.27817318,24.1474825 C9.19879708,24.228154 9.10280161,24.2676101 8.98969067,24.2676101 L4.30674878,24.2676101 C4.19338979,24.2676101 4.10309947,24.228154 4.03538174,24.1474825 C3.96741595,24.0670624 3.94459532,23.9703069 3.96741595,23.8552055 L6.20731029,5.28945956 C6.20731029,5.17511216 6.16166903,5.1178128 6.07162677,5.1178128 L0.506121862,5.1178128 C0.392762868,5.1178128 0.302720604,5.07785404 0.234506767,4.99693126 C0.166789031,4.91726505 0.143968403,4.81975561 0.166789031,4.7051569 L0.642053434,0.613530364 C0.664129912,0.499434273 0.715228277,0.40192484 0.794604377,0.321253375 C0.873980478,0.241587162 0.969727899,0.20087446 1.08308689,0.20087446 L18.2198909,0.20087446 C18.3330019,0.20087446 18.4237883,0.241587162 18.491506,0.321253375" id="Fill-9" fill="#FF9B00" mask="url(#mask-2)"></path>
                    </g>
                    <g id="Group">
                        <path d="M43.1080215,17 C43.1080215,26.3888921 35.4969679,34 26.1081428,34 C16.7193176,34 9.10802152,26.3888921 9.10802152,17 C9.10802152,7.61110794 16.7193176,0 26.1081428,0 C35.4969679,0 43.1080215,7.61110794 43.1080215,17" id="Fill-12" fill="#1C1C32"></path>
                        <path d="M34.402466,19.2002466 C34.0596681,22.0199273 31.6563728,24.2062407 28.7373967,24.2062407 C25.5832107,24.2062407 23.0260768,21.6552538 23.0260768,18.50865 C23.0260768,16.3233235 24.2607429,14.4276631 26.0706961,13.471814 C25.3761964,12.8406675 24.666115,12.1616544 23.9372366,11.41701 C19.2609884,6.63825816 13.7017759,3.96908545 9.11802864,2.48152377 L9.11802864,2.48127703 L9.11802864,2.48152377 C3.93525074,0.799782113 -2.27909934e-15,0.628795175 -2.27909934e-15,0.628795175 C-2.27909934e-15,0.628795175 7.30560218,3.53409271 8.91571357,8.14037718 L8.91645556,8.1147168 C9.20805638,13.7807255 11.1382114,22.0522495 19.562977,24.7507836 C32.8074417,28.9933815 40.8270825,20.7507255 40.8270825,20.7507255 C40.8270825,20.7507255 38.4188406,21.0433525 34.402466,19.2002466" id="Fill-15" fill="#FF9B00"></path>
                    </g>
                </g>
            </g>
        </g>
    </g>
</svg>