<?xml version="1.0" encoding="UTF-8"?>
<svg width="226px" height="53px" viewBox="0 0 226 53" version="1.1" xmlns="http://www.w3.org/2000/svg" xmlns:xlink="http://www.w3.org/1999/xlink">
    <!-- Generator: Sketch 63.1 (92452) - https://sketch.com -->
    <title>boost-logo-white</title>
    <desc>Created with Sketch.</desc>
    <defs>
        <polygon id="path-1" points="0.246636486 0.313127835 28.9435467 0.313127835 28.9435467 37.8289216 0.246636486 37.8289216"></polygon>
    </defs>
    <g id="Home" stroke="none" stroke-width="1" fill="none" fill-rule="evenodd">
        <g id="UGG_LandingPage_Boost_v1e" transform="translate(-381.000000, -214.000000)">
            <g id="Group-27" transform="translate(381.000000, 170.000000)">
                <g id="boost-logo-white" transform="translate(0.000000, 44.000000)">
                    <path d="M85.6794642,14.9799087 L84.9085606,21.8197738 C84.8398105,22.001911 84.9085606,22.0919875 85.1140598,22.0919875 L90.0482936,22.0919875 C91.4184132,22.0919875 92.4973777,21.7753308 93.2863141,21.1420173 C94.0741235,20.5087038 94.5531206,19.6134937 94.7251839,18.4544031 C94.8615572,17.259996 94.604965,16.3378027 93.9542803,15.685839 C93.3028442,15.0342721 92.2918786,14.7088855 90.9221346,14.7088855 L85.9879008,14.7088855 C85.7824016,14.7088855 85.6794642,14.7993588 85.6794642,14.9799087 M92.1299587,36.0431377 C92.9688611,35.2471309 93.3888759,34.1428005 93.3888759,32.7313367 C93.3888759,31.6821633 93.0627822,30.8774266 92.4124731,30.3159362 C91.761037,29.7552395 90.8195729,29.4746927 89.5854509,29.4746927 L84.2405945,29.4746927 C84.0685312,29.4746927 83.9832509,29.5651661 83.9832509,29.745716 L83.1097856,36.9657279 C83.1097856,37.1474682 83.1950658,37.2375448 83.3671291,37.2375448 L88.6608926,37.2375448 C90.1331982,37.2375448 91.2899293,36.8399382 92.1299587,36.0431377 M97.9628287,25.5656882 C100.395758,27.0501655 101.612223,29.385013 101.612223,32.5686434 C101.612223,32.8944269 101.577285,33.4559172 101.509662,34.2515272 C101.063725,37.8708583 99.5899162,40.5675992 97.0893634,42.3397659 C94.5876836,44.1139166 91.4875391,45 87.7866759,45 L74.5265329,45 C74.3548453,45 74.218472,44.9377004 74.1159103,44.8103234 C74.0129729,44.6833433 73.9784099,44.5305703 74.0129729,44.3488299 L78.2788648,7.65117008 C78.2788648,7.47101699 78.346488,7.31705356 78.484364,7.1896766 C78.6207373,7.06388689 78.7747677,7 78.9464553,7 L91.7956,7 C95.4615246,7 98.2457188,7.68807368 100.147431,9.06303061 C102.049144,10.439178 103,12.6458549 103,15.685839 C103,16.0842392 102.965437,16.7175527 102.897063,17.5853827 C102.451501,21.1686037 100.823663,23.7205079 98.0146731,25.2399048 C97.8087983,25.3486315 97.7911411,25.4573583 97.9628287,25.5656882" id="Fill-1" fill="#FFFFFF"></path>
                    <path d="M122.207428,35.8304104 C123.335079,34.7204786 124.003753,33.2667114 124.211929,31.470654 L125.565643,20.5301186 C125.599895,20.3184087 125.617782,20.0012302 125.617782,19.578583 C125.617782,18.0286191 125.192297,16.7954474 124.342087,15.8786816 C123.491115,14.9626885 122.337585,14.5048851 120.879974,14.5048851 C119.28269,14.5048851 117.920223,15.0592715 116.792572,16.1692032 C115.664541,17.2795214 114.996627,18.7325159 114.788451,20.5301186 L113.486496,31.470654 C113.451483,31.7171338 113.434357,32.0698549 113.434357,32.5268857 C113.434357,34.0783949 113.850709,35.293409 114.684173,36.1738596 C115.517257,37.0554691 116.644528,37.4958876 118.068268,37.4958876 C119.699423,37.4958876 121.079396,36.9399559 122.207428,35.8304104 M108.280197,41.8286008 C106.093399,39.7149785 105,36.8611442 105,33.2667114 C105,32.3866471 105.034252,31.7001352 105.104278,31.2056303 L106.405472,20.6352009 C106.718307,17.9583066 107.57727,15.5881599 108.982743,13.5270788 C110.388596,11.4659977 112.193294,9.86310631 114.397598,8.71724566 C116.601522,7.572544 119.057769,7 121.765197,7 C124.264068,7 126.432979,7.47518834 128.273071,8.42633767 C130.112402,9.37748701 131.527008,10.7253993 132.516129,12.4693019 C133.50563,14.2135908 134,16.2484013 134,18.5741198 C134,19.4908856 133.965367,20.1777839 133.896102,20.6352009 L132.646667,31.2056303 C132.333832,33.9543823 131.474869,36.3681845 130.069016,38.4466506 C128.663543,40.525503 126.849331,42.1376664 124.628281,43.2827543 C122.40685,44.427456 119.924724,45 117.183425,45 C113.434357,45 110.466614,43.9429957 108.280197,41.8286008" id="Fill-3" fill="#FFFFFF"></path>
                    <path d="M153.207428,35.8304104 C154.335079,34.7204786 155.003753,33.2667114 155.211929,31.470654 L156.565643,20.5301186 C156.599895,20.3184087 156.617782,20.0012302 156.617782,19.578583 C156.617782,18.0286191 156.192297,16.7954474 155.342087,15.8786816 C154.491115,14.9626885 153.337585,14.5048851 151.879974,14.5048851 C150.28269,14.5048851 148.920223,15.0592715 147.792572,16.1692032 C146.664541,17.2795214 145.996627,18.7325159 145.788451,20.5301186 L144.486496,31.470654 C144.451483,31.7171338 144.434357,32.0698549 144.434357,32.5268857 C144.434357,34.0783949 144.850709,35.293409 145.684173,36.1738596 C146.517257,37.0554691 147.644528,37.4958876 149.068268,37.4958876 C150.699423,37.4958876 152.079396,36.9399559 153.207428,35.8304104 M139.280197,41.8286008 C137.093399,39.7149785 136,36.8611442 136,33.2667114 C136,32.3866471 136.034252,31.7001352 136.104278,31.2056303 L137.405472,20.6352009 C137.718307,17.9583066 138.57727,15.5881599 139.982743,13.5270788 C141.388596,11.4659977 143.193294,9.86310631 145.397598,8.71724566 C147.601522,7.572544 150.057769,7 152.764816,7 C155.264068,7 157.432979,7.47518834 159.273071,8.42633767 C161.112402,9.37748701 162.527008,10.7253993 163.516129,12.4693019 C164.50563,14.2135908 165,16.2484013 165,18.5741198 C165,19.4908856 164.965367,20.1777839 164.896102,20.6352009 L163.646667,31.2056303 C163.333832,33.9543823 162.474869,36.3681845 161.069016,38.4466506 C159.663543,40.525503 157.849331,42.1376664 155.628281,43.2827543 C153.40685,44.427456 150.924724,45 148.183425,45 C144.434357,45 141.466614,43.9429957 139.280197,41.8286008" id="Fill-5" fill="#FFFFFF"></path>
                    <path d="M170.376338,42.3204357 C168.125318,40.5339302 167,38.1003257 167,35.0223377 C167,34.7042195 167.034437,34.1917387 167.104841,33.4833437 L167.261337,32.4746761 C167.296157,32.2985472 167.374596,32.148023 167.497421,32.0234913 C167.619097,31.9005115 167.767176,31.8376637 167.942421,31.8376637 L175.008853,31.8376637 C175.183333,31.8376637 175.323376,31.9005115 175.427452,32.0234913 C175.532293,32.148023 175.56673,32.2985472 175.532293,32.4746761 L175.427452,33.1120764 C175.287791,34.2794152 175.732791,35.2970056 176.762452,36.1632959 C177.791347,37.0307501 179.248789,37.4633133 181.133248,37.4633133 C182.738386,37.4633133 183.934108,37.0838991 184.718885,36.3223551 C185.504427,35.5623628 185.897006,34.7220651 185.897006,33.801462 C185.897006,32.9530173 185.530063,32.2892365 184.797324,31.8108952 C184.064586,31.3341058 182.738386,30.7413196 180.819108,30.0337005 L179.61535,29.6088963 C177.660487,28.9012772 175.96811,28.1583547 174.537834,27.3797409 C173.106794,26.6022909 171.876252,25.5404743 170.847357,24.1950669 C169.817696,22.8508234 169.303057,21.2055313 169.303057,19.2599667 C169.303057,18.9767639 169.337494,18.5170442 169.407898,17.8796439 C169.686836,15.6865678 170.480796,13.7662198 171.789395,12.1209278 C173.098376,10.4760237 174.78157,9.21130974 176.841274,8.32678584 C178.899447,7.4426499 181.167685,7 183.645987,7 C186.053885,7 188.191263,7.42402834 190.05812,8.27324887 C191.924595,9.12285735 193.38242,10.3351982 194.429299,11.9083317 C195.476178,13.4837929 196,15.2970669 196,17.3493175 C196,17.6674358 195.964415,18.1806924 195.894776,18.8883115 L195.790318,19.631234 C195.790318,19.8085267 195.719914,19.958663 195.580636,20.0828067 C195.440976,20.2061745 195.284097,20.2682464 195.11,20.2682464 L188.095605,20.2682464 C187.920743,20.2682464 187.772664,20.2061745 187.650605,20.0828067 C187.52778,19.958663 187.484543,19.8085267 187.519745,19.631234 L187.571783,19.2599667 C187.711061,18.0216333 187.318098,16.9245133 186.394044,15.9693827 C185.469225,15.0138641 184.134607,14.5362988 182.389426,14.5362988 C180.958386,14.5362988 179.824649,14.8637278 178.98707,15.5178099 C178.14949,16.1730559 177.731274,17.0835724 177.731274,18.2512991 C177.731274,18.8883115 177.957409,19.4368715 178.41121,19.8962032 C178.864628,20.3570867 179.545329,20.7900379 180.45293,21.1969965 C181.359766,21.6035671 182.755987,22.1614379 184.640445,22.8682811 C186.769023,23.6472828 188.41778,24.3195986 189.587101,24.8856163 C190.756422,25.4520219 191.855339,26.3633143 192.885,27.6187175 C193.913895,28.8748966 194.429299,30.4938081 194.429299,32.4746761 C194.429299,32.7586548 194.39448,33.2175986 194.324458,33.8549989 C193.905477,37.2867965 192.36156,40.0028279 189.69156,42.0015416 C187.022325,44.0010311 183.663205,45 179.61535,45 C175.706773,45 172.627357,44.1065533 170.376338,42.3204357" id="Fill-7" fill="#FFFFFF"></path>
                    <g id="Group-11" transform="translate(197.000000, 7.000000)">
                        <mask id="mask-2" fill="white">
                            <use xlink:href="#path-1"></use>
                        </mask>
                        <g id="Clip-10"></g>
                        <path d="M28.8249947,0.50077732 C28.9305547,0.626529897 28.9653547,0.778529897 28.9305547,0.956385567 L28.1375013,7.33450928 C28.1375013,7.51314845 28.065968,7.66514845 27.9259947,7.78933402 C27.7844747,7.91547835 27.6255547,7.97776701 27.4496213,7.97776701 L18.509888,7.97776701 C18.2983813,7.97776701 18.1924347,8.0670866 18.1924347,8.24533402 L14.701608,37.1860557 C14.6660347,37.3654784 14.586768,37.5163031 14.4630347,37.6416639 C14.3393013,37.7674165 14.1896613,37.8289216 14.0133413,37.8289216 L6.71346133,37.8289216 C6.53675467,37.8289216 6.396008,37.7674165 6.290448,37.6416639 C6.18450133,37.5163031 6.148928,37.3654784 6.18450133,37.1860557 L9.67610133,8.24533402 C9.67610133,8.0670866 9.60495467,7.97776701 9.46459467,7.97776701 L0.788954667,7.97776701 C0.612248,7.97776701 0.471888,7.91547835 0.365554667,7.78933402 C0.259994667,7.66514845 0.224421333,7.51314845 0.259994667,7.33450928 L1.000848,0.956385567 C1.03526133,0.778529897 1.11491467,0.626529897 1.238648,0.50077732 C1.36238133,0.376591753 1.51163467,0.313127835 1.68834133,0.313127835 L28.4015947,0.313127835 C28.5779147,0.313127835 28.7194347,0.376591753 28.8249947,0.50077732" id="Fill-9" fill="#FFFFFF" mask="url(#mask-2)"></path>
                    </g>
                    <g id="Group">
                        <path d="M67.1977982,26.5 C67.1977982,41.1356259 55.3335087,53 40.6979872,53 C26.0624657,53 14.1977982,41.1356259 14.1977982,26.5 C14.1977982,11.8643741 26.0624657,0 40.6979872,0 C55.3335087,0 67.1977982,11.8643741 67.1977982,26.5" id="Fill-12" fill="#1C1C32"></path>
                        <path d="M53.6273735,29.9297961 C53.093012,34.3251807 49.3466988,37.7332576 44.7965301,37.7332576 C39.8797108,37.7332576 35.8935904,33.7567192 35.8935904,28.8517192 C35.8935904,25.4451807 37.8182169,22.4901807 40.6396145,21.0001807 C39.557012,20.0163346 38.4501205,18.957873 37.3139277,17.7971038 C30.0244819,10.347873 21.3586506,6.18710379 14.2133976,3.86825764 L14.2133976,3.86787302 L14.2133976,3.86825764 C6.13436145,1.24671918 -3.55271368e-15,0.980180714 -3.55271368e-15,0.980180714 C-3.55271368e-15,0.980180714 11.3881446,5.50902687 13.8980241,12.6894115 L13.8991807,12.6494115 C14.3537349,21.4817192 17.362506,34.3755653 30.4952289,38.5821038 C51.141012,45.1955653 63.6422169,32.3467192 63.6422169,32.3467192 C63.6422169,32.3467192 59.8881928,32.802873 53.6273735,29.9297961" id="Fill-15" fill="#FF9B00"></path>
                    </g>
                </g>
            </g>
        </g>
    </g>
</svg>