<svg xmlns="http://www.w3.org/2000/svg" width="50" height="39" viewBox="0 0 50 39"><g><g><g opacity="1"><g><path fill="#070720" d="M49.41 19.485c0 10.762-8.723 19.486-19.485 19.486-10.761 0-19.485-8.724-19.485-19.486C10.44 8.724 19.164 0 29.925 0c10.762 0 19.486 8.724 19.486 19.485"/></g><g><path fill="#ff9b00" d="M39.604 22.257c-.395 3.228-3.161 5.73-6.522 5.73-3.63 0-6.574-2.92-6.574-6.521 0-2.502 1.42-4.671 3.504-5.765-.799-.723-1.616-1.5-2.456-2.352-5.383-5.47-11.783-8.526-17.06-10.228C4.53 1.196 0 1 0 1s8.41 3.325 10.264 8.598v-.03c.336 6.486 2.558 15.954 12.257 19.043C37.768 33.467 47 24.032 47 24.032s-2.772.335-7.396-1.775"/></g></g></g></g></svg>
