<?xml version="1.0" encoding="UTF-8"?>
<svg width="372px" height="106px" viewBox="0 0 372 106" version="1.1" xmlns="http://www.w3.org/2000/svg" xmlns:xlink="http://www.w3.org/1999/xlink">
    <!-- Generator: Sketch 52.6 (67491) - http://www.bohemiancoding.com/sketch -->
    <title>cloud-6</title>
    <desc>Created with Sketch.</desc>
    <defs>
        <filter x="-4.4%" y="-16.3%" width="108.7%" height="132.7%" filterUnits="objectBoundingBox" id="filter-1">
            <feOffset dx="0" dy="5" in="SourceAlpha" result="shadowOffsetOuter1"></feOffset>
            <feGaussianBlur stdDeviation="1.5" in="shadowOffsetOuter1" result="shadowBlurOuter1"></feGaussianBlur>
            <feColorMatrix values="0.04     0     0     0     0
              0     0.04     0     0     0
              0     0     0.14     0     0
              0     0     0     0.55     0 " type="matrix" in="shadowBlurOuter1" result="shadowMatrixOuter1"></feColorMatrix>
            <feMerge>
                <feMergeNode in="shadowMatrixOuter1"></feMergeNode>
                <feMergeNode in="SourceGraphic"></feMergeNode>
            </feMerge>
        </filter>
        <polygon id="path-2" points="0 0.325613805 365.832802 0.325613805 365.832802 86.4105337 0 86.4105337"></polygon>
    </defs>
    <g id="Landing-Page" stroke="none" stroke-width="1" fill="none" fill-rule="evenodd">
        <g id="UGG_LandingPage_Boost_v1d" transform="translate(-245.000000, -3268.000000)">
            <g id="cloud-6" filter="url(#filter-1)" transform="translate(248.000000, 3268.000000)">
                <path d="M365.972742,78.0523666 C365.210423,76.4490271 363.874775,75.6969781 362.258367,75.0095725 C356.67772,72.6359745 351.128873,70.1667772 345.687242,67.4918133 C342.680671,66.0141189 339.82311,64.3342999 336.313172,64.7066825 C334.580463,64.8905976 333.350213,64.2286852 332.760529,62.5816432 C331.291316,58.4790608 328.225685,56.3157817 324.105164,55.6347493 C321.829111,55.2587248 321.019544,54.1242779 321.258507,51.9318637 C321.410244,50.5433954 320.871442,49.2851245 320.392607,47.9904347 C318.048408,41.654467 312.812121,39.6477889 306.833505,39.2553758 C303.322658,39.0232057 301.814375,37.8168317 302.289575,34.272368 C302.449489,33.0814719 302.355903,31.8532465 302.33864,30.6423201 C302.243236,24.0241063 297.515768,18.6759996 290.968365,18.2571829 C285.871095,17.9321448 280.686599,17.5761506 276.075432,20.7473211 C274.354536,21.930023 272.864425,22.5081721 273.16699,19.0629498 C273.731233,12.6286511 270.742834,7.70573437 265.6283,4.00466971 C255.7654,-3.13342302 240.652585,-0.513087452 232.039925,10.1430653 C229.873812,12.821671 227.710425,13.936998 224.370396,13.699365 C220.308026,13.4098353 216.6727,15.0632506 214.763723,18.5658326 C213.047369,21.7160623 211.208354,21.5212215 208.616106,20.3858641 C204.21301,18.4574865 199.858978,18.6031619 195.504037,20.6817672 C189.79982,23.404986 186.697845,28.1967949 184.795227,34.1813209 C180.383045,32.1336716 176.026287,30.6204688 171.205233,31.2150063 C162.52897,32.2820784 156.674833,37.3898207 153.895412,45.1697955 C151.985526,50.5124394 148.70819,51.1925613 144.236948,50.8165367 C136.621936,50.1746547 130.218093,54.3782993 125.233489,58.4827027 C119.659202,63.0714766 115.047127,65.9822524 107.900954,63.9837685 C106.339063,63.545832 104.204751,64.1285334 102.667393,64.9033442 C100.76205,65.8611597 99.9633866,65.5288378 98.7031524,63.8799748 C94.1837546,57.9673761 87.7671911,56.6863434 81.1407399,60.3637358 C79.6933333,61.1676817 78.8792238,61.001976 77.5254034,60.3628253 C72.6343864,58.0529603 67.512584,58.7658591 63.884527,62.9066813 C61.1469023,66.0314178 58.2484546,69.0660177 55.7352551,72.3355191 C53.1802598,75.6578278 50.9750771,76.2414397 47.3570148,74.2593443 C45.5943225,73.2933346 43.4009517,71.8994035 41.051301,73.7303607 C37.7839599,76.2751272 33.9251174,76.8277831 29.8990918,76.5391638 C28.3399268,77.7364331 26.6326593,77.2001657 24.9517414,76.9652642 C24.1612556,77.1500898 23.4034796,77.1510003 22.7556448,76.5546418 C21.8379544,76.6393156 20.9193555,76.7221684 20.0016651,76.8059318 C17.6783639,79.2241428 15.1933312,78.5704246 12.6692284,77.1947029 C9.65175353,77.268451 6.59611727,77.0781626 3.62952423,77.506084 C1.4479653,77.8220174 -0.433754204,79.2733082 0.0877846644,81.9136741 C0.628404223,84.6551024 2.81450617,84.950095 5.02423183,84.2626893 C7.14491427,83.6035083 9.15565558,83.456012 11.2027411,84.3118548 C15.0043415,85.9015372 18.7341621,87.4875777 22.8074352,84.8463013 C24.0040671,84.0696695 25.3869628,85.3306718 26.6780895,85.5082137 C30.754997,86.0690638 34.7401355,89.001691 38.9987638,86.1774099 C40.8768489,86.5361355 42.9811765,85.7977435 44.644831,87.1270311 C47.3433857,89.2812056 50.4062908,89.3285501 53.5873145,88.9261219 C56.5284666,87.6277902 59.6795063,86.6098836 62.7524061,87.6314321 C65.2846863,88.4717968 66.7384531,86.1173188 69.5024274,86.3449365 C73.0995918,86.6417501 74.6024234,88.7986559 77.0738271,89.9840892 C77.0738271,89.9831787 77.1437896,89.9294609 77.1437896,89.9294609 C77.138338,89.3822678 77.1319777,88.8368957 77.1274347,88.2915236 C77.5599304,85.8086691 79.1763374,86.3039654 80.4474748,87.2499447 C83.2359814,89.3258186 86.4197309,88.8642098 89.5416953,89.2557124 C97.101283,90.2026022 104.206569,84.2745255 111.891544,87.9054839 C112.101431,88.0047252 112.470325,87.7871226 112.756535,87.6924336 C116.415485,86.4696711 119.882719,86.1419015 123.673416,87.8872744 C125.859518,88.8942554 128.801578,88.7431172 131.17031,87.4429646 C133.37095,86.2347696 134.717501,86.5270308 136.602855,88.418079 C141.321237,93.1525283 149.019841,93.4365953 154.664091,89.3003255 C156.741161,87.7798389 157.921438,88.6274874 159.282527,90.0396279 C164.402512,95.3531367 170.304806,95.6836377 176.66867,92.6790834 C179.2273,91.4717988 181.367972,91.5655773 183.760327,93.4265801 C186.795065,95.7874314 192.477476,95.3048818 194.893455,92.4214201 C196.604357,90.381965 197.542945,90.650554 198.983083,92.3941059 C201.402697,95.3249121 204.123058,95.2520745 206.848871,92.8666404 C208.316267,91.5810553 209.74005,90.5585964 211.642667,91.905183 C215.267998,94.4690694 218.892421,96.7834867 223.63897,94.6793882 C224.45217,94.3188417 225.265371,95.2447907 225.959545,95.8520748 C228.757138,98.2912267 231.855478,98.5306806 235.239121,97.1859149 C238.355633,95.9476743 241.294968,95.5825754 244.808541,96.7853076 C248.407523,98.0180854 252.682506,98.251166 256.127934,95.6690702 C258.483945,93.9036669 260.415637,94.1494941 262.693508,95.6608759 C266.815846,98.3950204 271.051759,98.0945649 274.890612,95.189252 C277.562818,93.1680063 279.847049,91.2195983 283.648649,92.5707373 C285.36046,93.1798424 287.792793,92.328552 289.045759,90.8372005 C291.406313,88.027487 293.071784,88.8496423 295.736721,90.6277922 C301.330089,94.3552605 305.970331,94.5255186 308.932381,91.3488852 C310.785934,89.3604165 312.455949,89.6353788 314.8374,89.612617 C321.13312,89.5534364 327.700512,89.7947112 333.338401,86.2192915 C335.345508,84.9455426 337.00462,84.6359825 339.200716,85.4126142 C342.987779,86.7528276 346.871154,87.0314317 350.66912,85.3534336 C351.729461,84.8836306 352.597178,84.9373484 353.659336,85.435376 C357.781674,87.3701269 361.554199,86.597137 364.962374,83.6845403 C365.308552,83.4450864 365.653822,83.206543 366,82.9670891 C365.990914,81.3300622 365.981828,79.6921249 365.972742,78.0523666" id="Fill-1" fill="#F1F6F8"></path>
                <path d="M24.4885,77.501 C24.4895,77.502 24.4905,77.502 24.4915,77.502 C24.4985,77.5 24.5055,77.499 24.5115,77.498 L24.4885,77.501 Z" id="Fill-3" fill="#F1F6F8"></path>
                <g id="Group-7">
                    <mask id="mask-3" fill="white">
                        <use xlink:href="#path-2"></use>
                    </mask>
                    <g id="Clip-6"></g>
                    <path d="M29.885671,75.7245309 C33.9098546,76.0088505 37.7660233,75.4644278 41.0318695,72.9575722 C43.3813533,71.1538918 45.5728124,72.5279536 47.3356065,73.4795722 C50.9520134,75.4312423 53.1561871,74.8563247 55.7100134,71.5835103 C58.222063,68.3627165 61.1191846,65.3733247 63.8555568,62.2951392 C67.4810457,58.2160052 72.6014129,57.5137268 77.4901921,59.7891804 C78.8433931,60.4197062 79.65713,60.5820464 81.1038744,59.7900773 C87.7263856,56.168366 94.1409216,57.4303144 98.6582516,63.253933 C99.9179092,64.878232 100.716207,65.2065 102.61977,64.2620567 C104.157333,63.4987887 106.290668,62.924768 107.851845,63.3561804 C114.994748,65.3248918 119.604713,62.4583763 125.17645,57.937067 C130.158773,53.8938093 136.559686,49.7527887 144.171214,50.3851082 C148.64041,50.7555309 151.916247,50.0855412 153.825259,44.8224897 C156.603408,37.1593144 162.454867,32.126768 171.12716,31.0755928 C175.946008,30.4899124 180.301681,31.9814691 184.710936,33.9995103 C186.612683,28.1023454 189.713239,23.3828196 195.414847,20.6992732 C199.767795,18.651634 204.119835,18.5081289 208.520917,20.4086753 C211.111979,21.5262216 212.950152,21.7181598 214.665721,18.6148608 C216.573825,15.1644588 220.207487,13.5356753 224.267999,13.8208918 C227.6065,14.0558814 229.768897,12.9571701 231.934018,10.3175722 C240.542738,-0.179829897 255.647731,-2.76112887 265.507026,4.27062371 C270.619219,7.91655155 273.606252,12.7661289 273.042267,19.1045722 C272.73984,22.4984691 274.229269,21.928933 275.94847,20.7638505 C280.558435,17.6408196 285.740559,17.9906134 290.835497,18.3108093 C297.379904,18.7233866 302.105209,23.9918196 302.200569,30.5114381 C302.217825,31.7043247 302.311368,32.9151495 302.151527,34.0874072 C301.676544,37.579067 303.184137,38.768366 306.693378,38.9961804 C312.669259,39.3827474 317.90315,41.3604278 320.246276,47.6020052 C320.724892,48.8765103 321.262539,50.1160361 321.11178,51.4847165 C320.872927,53.6435722 321.682123,54.7611186 323.957135,55.1315412 C328.07577,55.8024278 331.139999,57.9334794 332.608539,61.9749433 C333.197954,63.5974485 334.427641,64.2495 336.159557,64.0683247 C339.667889,63.7014897 342.524142,65.3562835 345.529338,66.8119639 C350.96848,69.4470773 356.513879,71.8794897 362.092882,74.2177268 C363.708549,74.8948918 365.043587,75.6357371 365.805557,77.2151907 C365.814639,78.8305206 365.822812,80.4440567 365.832802,82.0584897 C365.486783,82.2925825 365.140763,82.5284691 364.795651,82.7634588 C365.036321,79.5893041 363.588668,78.1695 360.441795,77.0698918 C356.358579,75.6438093 352.684048,75.2931186 348.596291,76.7801907 C345.434887,77.9300258 342.053701,77.6842732 338.789671,76.7209948 C331.308922,74.5137062 324.281358,75.5864072 317.562579,79.416201 C315.368396,80.6673866 313.858078,80.1812629 312.605686,77.6214897 C309.894743,72.0848814 300.727487,67.8999124 294.955949,69.5744381 C292.099696,70.4022835 289.433254,71.9871186 286.818579,73.4652216 C285.189289,74.3872423 284.539934,74.3477784 282.756252,73.065201 C277.726703,69.4524588 272.568192,65.9751495 265.554252,66.4137371 C261.981438,66.637067 259.338609,69.7870052 256.248951,69.0775515 C252.368262,68.1869227 249.979726,69.9412732 247.241537,71.7359845 C240.3611,76.245634 234.872008,75.9236443 229.013284,69.9358918 C225.271547,66.1114794 220.06581,66.2522938 215.786425,64.027067 C215.111641,63.6754794 213.780237,63.785799 213.160852,64.2333557 C210.306415,66.2971392 207.468326,65.7096649 204.577562,64.5221598 C203.099031,63.9140567 201.697696,64.2495 200.172847,64.4315722 C195.564698,64.984067 193.472232,69.2963969 189.576103,70.9852732 C187.134892,72.0436237 186.054147,71.6965206 184.198718,69.9789433 C180.920157,66.9438093 183.92717,64.3912113 184.859879,60.5847371 C181.30977,62.8180361 181.394232,66.0253763 179.75041,68.1250361 C171.171661,79.078067 167.509845,79.8180155 156.212887,72.0678402 C150.274242,67.9931907 143.82247,68.3985928 138.63308,73.3163351 C137.083711,74.7845722 135.626068,75.3496237 133.391016,74.9370464 C128.547646,74.041933 123.718807,74.2024794 120.131463,78.2125515 C117.405989,81.2602423 114.581522,80.4673763 111.748882,78.7838814 C106.17442,75.4716031 100.635378,75.3280979 95.2016859,78.8547371 C93.6741127,79.8467165 92.1610705,80.2601907 90.5199737,80.0189227 C87.5120531,79.5767474 84.5422764,79.8144278 81.5525196,80.0512113 C77.6972591,80.3570567 73.9882169,80.1624278 71.2091598,76.9254897 C70.6306437,76.2528093 69.7388025,75.2922216 68.9386883,75.9505515 C65.2741474,78.9677474 60.5152392,79.4395206 56.4983211,81.4459021 C53.3232938,83.031634 49.9230357,83.5446649 47.4164352,82.3544691 C43.0371499,80.2754381 41.068197,82.2226237 38.9811797,85.2191907 C34.7244998,88.0013969 30.7411846,85.1124588 26.6670506,84.5608608 C25.3756065,84.385067 23.9933434,83.1428505 22.7972591,83.9079124 C18.7258496,86.5098402 14.9968273,84.9474278 11.1978744,83.3814278 C9.15172556,82.5383351 7.14190422,82.683634 5.02219206,83.3329948 C2.81256923,84.0101598 0.628375682,83.7195619 0.0870952854,81.0189742 C-0.433296774,78.4179433 1.44756179,76.9882732 3.62812258,76.6779433 C6.59335831,76.2555 9.64759653,76.4429536 12.6636908,76.3703041 C15.1857305,77.7255309 17.6705345,78.3695103 19.9918645,75.9873247 C20.9100432,75.9048093 21.8282218,75.8231907 22.7454923,75.7406753 C23.3975717,76.3317371 24.1613583,76.3263557 24.9587479,76.1406959 L24.9378596,76.1442835 C26.6189166,76.3756856 28.3263112,76.9048608 29.885671,75.7245309" id="Fill-5" fill="#F1F6F8" mask="url(#mask-3)"></path>
                </g>
                <path d="M39,86.1225305 C41.0880397,83.0665932 43.0588658,81.0808285 47.4393878,83.2010508 C49.9481249,84.4148277 53.34914,83.8925469 56.5257227,82.2744825 C60.5446086,80.2283491 65.305848,79.7472288 68.9721841,76.6702539 C69.7726902,75.9988806 70.665877,76.9785001 71.2437679,77.6645082 C74.0241863,80.9655791 77.7350455,81.1640641 81.5921946,80.8521591 C84.5834161,80.6106843 87.5555562,80.3682947 90.5640417,80.8192307 C92.206851,81.0652789 93.7206344,80.6436126 95.2480473,79.6319794 C100.68531,76.0354677 106.226157,76.1818161 111.803349,79.5597199 C114.637377,81.2765694 117.464136,82.0851443 120.190036,78.9770703 C123.780047,74.8875475 128.610343,74.7238203 133.456085,75.6366683 C135.692232,76.05742 137.151498,75.4811732 138.701626,73.9838462 C143.89265,68.9686698 150.347582,68.5552356 156.289136,72.7106152 C167.591628,80.6152576 171.256147,79.8597341 179.83819,68.6896932 C181.483725,66.5484333 181.399223,63.2775468 184.950162,61 C184.017904,64.881891 181.00851,67.485063 184.288677,70.5803315 C186.145015,72.3319388 187.227198,72.6859189 189.668696,71.6065996 C193.566734,69.8842619 195.660225,65.4864928 200.270631,64.9230515 C201.796227,64.737372 203.198248,64.3952826 204.677504,65.0154339 C207.570593,66.2264669 210.410072,66.8255806 213.264999,64.7218225 C213.885596,64.2653985 215.217652,64.1519784 215.892767,64.510532 C220.174248,66.7807614 225.381626,66.6362424 229.125196,70.536427 C234.986791,76.6428135 240.478572,76.9711827 247.362379,72.3721846 C250.101909,70.541915 252.491615,68.752806 256.374206,69.6610807 C259.466286,70.3845905 262.1095,67.1722433 265.684973,66.9444887 C272.701441,66.4972114 277.863388,70.0434158 282.894491,73.7277365 C284.679956,75.0357253 285.329629,75.0759711 286.959718,74.1365974 C289.574765,72.6282943 292.242513,71.0120592 295.101074,70.167812 C300.874531,68.4601092 310.047186,72.7279941 312.758548,78.3742979 C314.011554,80.9847873 315.522611,81.4805425 317.71787,80.2045675 C324.440849,76.2988948 331.470946,75.2049406 338.95536,77.4559618 C342.220989,78.4383253 345.60474,78.688947 348.766785,77.5163305 C352.856544,75.9997953 356.532875,76.3574342 360.618091,77.8117713 C363.767415,78.9331658 365.215777,80.3811002 364.97408,83.6181437 C361.565796,86.5441968 357.794058,87.3216726 353.67068,85.3779831 C352.609396,84.8776545 351.740742,84.8236885 350.680367,85.2947474 C346.88137,86.9804979 342.998779,86.7006066 339.210686,85.3542014 C337.015428,84.5748963 335.356263,84.8849719 333.349092,86.1646056 C327.711021,89.7574586 321.144327,89.5141544 314.847497,89.5736085 C312.465968,89.5964754 310.7959,89.3202428 308.942288,91.3178983 C305.980142,94.5092079 301.34066,94.3381632 295.746203,90.5934738 C293.081181,88.8080234 291.415656,87.981155 289.055026,90.8038496 C287.802021,92.3020913 285.370518,93.1573147 283.657744,92.5453955 C279.856021,91.1880141 277.572625,93.1454238 274.899425,95.1760078 C271.061358,98.0947435 266.8244,98.3975017 262.70193,95.6498107 C260.423985,94.1314461 258.492231,93.8844832 256.137053,95.6580428 C252.690606,98.252068 248.416394,98.0179106 244.817297,96.7794373 C241.303611,95.5711484 238.363273,95.9379341 235.24666,97.1818954 C231.862909,98.532874 228.765377,98.2932285 225.967695,95.8418929 C225.27259,95.2318031 224.459363,94.3015761 223.646136,94.6637884 C218.898526,96.777608 215.274896,94.4524979 211.650357,91.8776809 C209.74677,90.524873 208.32385,91.5520558 206.855498,92.8426656 C204.129598,95.2400352 201.409149,95.3132094 198.989458,92.367948 C197.549274,90.6163407 196.610656,90.3465109 194.899699,92.3953884 C192.483642,95.2921718 186.801049,95.7769508 183.766213,93.4051922 C181.373781,91.5365062 179.23304,91.4413798 176.675237,92.6551567 C170.311168,95.6726776 164.409594,95.3406497 159.287627,90.0025922 C157.926494,88.5839275 156.746179,87.7323628 154.669043,89.2607888 C149.024611,93.4161684 141.32576,93.1298743 136.607226,88.3735517 C134.72272,86.4737666 133.375217,86.1801552 131.174507,87.3948468 C128.805699,88.7000915 125.864453,88.851928 123.676463,87.8402947 C119.887461,86.0868581 116.419207,86.4161419 112.761049,87.6445537 C112.473921,87.7405949 112.104107,87.9582881 111.89603,87.8585883 C104.210808,84.2108546 97.1043855,90.1663194 89.5445549,89.2150549 C86.4224902,88.8217436 83.2395471,89.2854851 80.4500423,87.2009352 C79.1797727,86.2505853 77.5624051,85.7530008 77.1298956,88.2464115 C77.136256,88.7943033 77.1417078,89.3431097 77.146251,89.8919162 C77.146251,89.8919162 77.0753776,89.9467969 77.0762862,89.9477115 C74.6057118,88.7558868 73.1019233,86.589016 69.5046434,86.2917458 C66.7405803,86.0630765 65.288584,88.4284323 62.7544052,87.5832704 C59.6823154,86.5579169 56.5302658,87.5796116 53.5899279,88.8848563 C50.408802,89.2882291 47.3457986,89.2406659 44.6462485,87.0765391 C42.9825406,85.74111 40.8781454,86.4838281 39,86.1225305" id="Fill-8" fill="#DEECF2"></path>
            </g>
        </g>
    </g>
</svg>
