<?xml version="1.0" encoding="UTF-8"?>
<svg width="428px" height="114px" viewBox="0 0 428 114" version="1.1" xmlns="http://www.w3.org/2000/svg" xmlns:xlink="http://www.w3.org/1999/xlink">
    <!-- Generator: Sketch 52.6 (67491) - http://www.bohemiancoding.com/sketch -->
    <title>cloud-8</title>
    <desc>Created with Sketch.</desc>
    <defs>
        <filter x="-3.8%" y="-15.1%" width="107.6%" height="131.1%" filterUnits="objectBoundingBox" id="filter-1">
            <feOffset dx="0" dy="5" in="SourceAlpha" result="shadowOffsetOuter1"></feOffset>
            <feGaussianBlur stdDeviation="1.5" in="shadowOffsetOuter1" result="shadowBlurOuter1"></feGaussianBlur>
            <feColorMatrix values="0.04     0     0     0     0
              0     0.04     0     0     0
              0     0     0.14     0     0
              0     0     0     0.55     0 " type="matrix" in="shadowBlurOuter1" result="shadowMatrixOuter1"></feColorMatrix>
            <feMerge>
                <feMergeNode in="shadowMatrixOuter1"></feMergeNode>
                <feMergeNode in="SourceGraphic"></feMergeNode>
            </feMerge>
        </filter>
        <polygon id="path-2" points="0 0.038 421.381 0.038 421.381 106 0 106"></polygon>
        <polygon id="path-4" points="0 0.0380887752 421.380829 0.0380887752 421.380829 101.203379 0 101.203379"></polygon>
        <polygon id="path-6" points="0.0421140289 0.900484487 373.086381 0.900484487 373.086381 50.0224719 0.0421140289 50.0224719"></polygon>
    </defs>
    <g id="Landing-Page" stroke="none" stroke-width="1" fill="none" fill-rule="evenodd">
        <g id="UGG_LandingPage_Boost_v1d" transform="translate(-1349.000000, -3378.000000)">
            <g id="cloud-8" filter="url(#filter-1)" transform="translate(1352.000000, 3378.000000)">
                <g id="Group-3">
                    <mask id="mask-3" fill="white">
                        <use xlink:href="#path-2"></use>
                    </mask>
                    <g id="Clip-2"></g>
                    <path d="M421.2433,82.0319 C420.4913,79.4649 418.1293,79.9839 416.1993,79.9079 C410.3053,79.6759 404.1453,80.9039 399.1103,76.3269 C398.2673,75.5599 396.8943,76.0899 395.7513,76.4519 C389.3043,78.4929 382.5753,76.9389 377.1623,74.5649 C370.7223,71.7409 364.7513,70.1749 358.0153,71.4279 C355.8223,71.8349 354.6033,71.2189 353.5673,69.3469 C349.0243,61.1479 341.9873,57.3859 332.6523,57.8149 C330.8013,57.8999 329.2753,57.7449 328.0023,55.8029 C321.4083,45.7509 311.8063,42.1949 300.0143,44.8439 C295.0903,45.9519 290.3253,49.8979 284.9363,46.1179 C284.6083,45.8879 283.9043,45.9689 283.4733,46.1449 C281.1023,47.1119 279.5273,46.1269 277.7833,44.4839 C272.7983,39.7899 268.5913,33.9719 261.2183,32.5139 C258.8333,32.0439 259.0933,29.9819 258.9173,28.1389 C258.1353,19.9899 252.5573,14.0389 244.4623,13.0029 C242.2943,12.7249 241.3363,11.3449 240.1183,10.0519 C231.7083,1.1129 219.4923,-1.4591 209.8623,8.2179 C208.3533,9.7329 207.3683,9.7929 205.7873,8.2779 C194.7533,-2.2911 181.5263,-0.7061 168.3893,2.1969 C162.0153,3.6059 157.1593,7.9389 154.3743,13.9899 C151.2633,20.7479 151.4053,20.8139 144.3383,18.1029 C133.5423,13.9629 119.3423,19.9629 115.5083,30.7599 C114.3003,34.1609 113.4443,34.8619 109.6823,34.2949 C103.0693,33.2969 95.8193,32.1149 90.7873,38.5599 C85.9603,44.7419 84.4303,52.8729 79.1133,58.8079 C79.0203,58.9139 79.0683,59.1349 79.0213,59.2929 C77.2303,65.2829 77.5573,71.9359 73.2493,77.1659 C72.6063,77.9449 72.8563,79.7269 71.3763,79.6809 C64.0353,79.4569 60.0433,87.2189 52.5973,87.2929 C50.0173,87.3179 47.3693,88.5619 44.4963,87.9419 C42.7803,87.5729 40.6643,87.3159 39.2243,88.6889 C35.9583,91.8019 32.1513,91.0779 28.4183,90.3789 C26.2463,89.9709 24.0743,89.3809 22.0793,90.4319 C15.9183,93.6779 9.3563,95.6779 2.6153,97.2539 C0.8703,97.6619 -0.2357,98.9439 0.0423,100.9679 C0.9633,103.5209 2.8113,102.6499 4.5733,102.2229 C13.5853,100.0429 22.8673,101.9419 31.7823,102.1009 C41.2933,102.2699 50.6133,102.2439 59.9973,100.9529 C64.6603,99.2959 69.3103,98.9629 73.9393,101.0809 C77.3003,104.3419 80.9543,102.7879 84.4793,101.5789 C86.5103,100.8819 88.3823,99.4759 90.6413,99.9689 C99.4193,101.8839 108.3283,102.6669 117.2573,103.4499 C128.7733,104.4599 140.2013,107.0389 151.8263,103.9449 C158.9853,102.0399 166.3533,102.0589 173.5213,104.0059 C179.0533,105.5079 184.6123,105.8149 190.2843,105.9629 C212.5683,106.5419 233.9653,100.2939 255.8203,97.5969 C261.3263,96.9189 266.4303,96.7789 271.9423,98.4499 C279.9223,100.8699 288.1383,101.0409 296.2283,97.5039 C301.7073,95.1079 307.7093,93.7369 313.6633,95.7829 C317.5273,97.1109 321.0303,96.6039 324.8553,95.7769 C335.1493,93.5499 345.4313,91.1349 356.1683,92.5769 C362.2883,93.3999 368.4363,93.3109 372.9623,87.9159 C375.6063,88.0109 377.0853,90.3739 379.5643,91.1239 C387.2173,93.4359 394.5213,88.4709 402.0903,90.4719 C402.7553,90.6479 403.7553,89.5149 404.6123,89.0139 C405.7843,88.3289 407.0003,87.8179 408.4033,88.2179 C412.1213,89.2749 415.2713,88.2079 417.9523,85.5809 C419.1113,84.4449 422.0483,84.7789 421.2433,82.0319" id="Fill-1" fill="#F1F6F8" mask="url(#mask-3)"></path>
                </g>
                <g id="Group-6">
                    <mask id="mask-5" fill="white">
                        <use xlink:href="#path-4"></use>
                    </mask>
                    <g id="Clip-5"></g>
                    <path d="M0.0421,101.203379 C-0.2349,99.175653 0.8691,97.8896557 2.6151,97.4807025 C9.3561,95.902023 15.9181,93.8973507 22.0791,90.6437674 C24.0741,89.5893097 26.2461,90.1816904 28.4181,90.5896412 C32.1511,91.2902742 35.9581,92.0159656 39.2251,88.8956931 C40.6641,87.5204878 42.7801,87.7770859 44.4961,88.1479503 C47.3691,88.7693987 50.0181,87.5224925 52.5971,87.4964317 C60.0431,87.4232612 64.0351,79.6421254 71.3761,79.867651 C72.8561,79.9137585 72.6061,78.1275954 73.2491,77.3457732 C77.5581,72.1045572 77.2301,65.4350122 79.0211,59.4310185 C79.0681,59.2726493 79.0201,59.0511331 79.1131,58.9458878 C84.4301,52.9960201 85.9601,44.8460246 90.7871,38.6505846 C95.8191,32.1895255 103.0691,33.3742869 109.6831,34.3746184 C113.4441,34.9439454 114.3001,34.2403054 115.5081,30.83136 C119.3421,20.0091362 133.5421,13.995119 144.3381,18.1457932 C151.4051,20.8631266 151.2631,20.7959701 154.3741,14.0221821 C157.1591,7.95804817 162.0161,3.61492546 168.3901,2.20163144 C181.5261,-0.708150517 194.7531,-2.29685338 205.7871,8.29784014 C207.3681,9.81537713 208.3541,9.75623929 209.8621,8.23669763 C219.4921,-1.463912 231.7081,1.11509901 240.1181,10.0749822 C241.3361,11.3720052 242.2941,12.7552292 244.4621,13.0328763 C252.5581,14.0712966 258.1341,20.0361992 258.9171,28.2052392 C259.0931,30.0525448 258.8331,32.1183597 261.2181,32.59046 C268.5911,34.0518662 272.7981,39.8824558 277.7831,44.5884242 C279.5271,46.2342602 281.1031,47.2225637 283.4741,46.2533046 C283.9041,46.0768934 284.6081,45.9957042 284.9371,46.2252392 C290.3251,50.0150723 295.0901,46.0588514 300.0151,44.9492652 C311.8071,42.2940766 321.4081,45.8573818 328.0021,55.9338675 C329.2751,57.879402 330.8011,58.0357665 332.6521,57.9505679 C341.9871,57.5205657 349.0241,61.2913544 353.5671,69.5095088 C354.6041,71.3848799 355.8221,72.0023189 358.0161,71.5943681 C364.7511,70.3384409 370.7221,71.9080993 377.1621,74.7396991 C382.5751,77.1192452 389.3041,78.6758733 395.7511,76.6301051 C396.8951,76.2672594 398.2681,75.7370236 399.1101,76.5048131 C404.1461,81.0935082 410.3061,79.861637 416.1991,80.094179 C418.1291,80.1713589 420.4911,79.6501441 421.2431,82.2231411 C422.0481,84.9775609 419.1111,84.6427806 417.9521,85.7804322 C415.2711,88.4135694 412.1211,89.4840644 408.4031,88.4235927 C407.0001,88.0236606 405.7841,88.534852 404.6121,89.2224547 C403.7551,89.7246251 402.7551,90.860272 402.0901,90.6838608 C394.5211,88.6781861 387.2171,93.6547853 379.5641,91.3363817 C377.0851,90.5846295 375.6061,88.2161091 372.9621,88.1208872 C371.7521,87.9565041 370.8511,87.4392986 370.1361,86.3457498 C365.6131,79.4236161 360.7201,78.2147986 353.9391,82.6230732 C352.1471,83.7867855 351.2661,83.4038931 349.6291,82.4336317 C343.3311,78.701934 336.5901,76.3083552 329.1291,75.9835983 C324.0341,75.7610797 318.7861,75.535554 313.9431,74.1392997 C309.8021,72.9455173 306.2251,72.4373329 302.6341,74.9281383 C301.0191,76.0497525 299.6621,76.1449744 298.1811,74.7787902 C293.6731,70.622102 288.2781,69.1907659 282.2221,68.9051001 C275.0361,68.5673128 273.2021,69.2499038 269.6181,75.7310096 C266.6201,81.152646 266.5431,81.1626694 262.0551,76.6411308 C261.5851,76.1690305 261.1041,75.7069535 260.6511,75.2178134 C255.2861,69.4333313 245.4071,67.8716915 238.6051,71.9361648 C236.3571,73.2792952 235.8271,72.7400384 234.7761,70.4406792 C229.0771,57.971617 211.2701,55.4617672 202.8561,65.8499794 C200.8851,68.2836517 199.5521,71.892062 196.8371,66.391241 C196.3261,65.3558277 194.2711,64.9508839 192.8481,64.533912 C190.3141,63.7911809 188.3281,62.3989359 187.0771,60.0995767 C185.2911,56.8169257 182.5451,56.6545472 179.3621,57.3972783 C176.0091,58.1791006 172.7291,59.8419763 169.1461,58.552972 C166.9531,57.7641334 165.0021,58.4507337 163.8311,60.1617215 C162.5041,62.0992374 164.8391,62.9572372 165.7051,64.2211831 C166.8921,65.9512154 168.9161,67.5940444 166.6381,69.8232401 C163.9831,72.4202931 163.0401,69.5115135 161.6241,68.1463316 C151.2551,58.1460235 139.2531,59.3478246 130.8301,70.2532423 C128.9151,72.733022 127.1491,73.5338886 124.7111,72.8633257 C121.8751,72.0835082 119.5591,72.3461203 117.2981,74.2224936 C114.6581,76.4146028 111.9081,76.4446729 109.0701,74.4319819 C106.0811,72.3120408 102.3701,72.0303844 99.6751,73.8716759 C93.4591,78.120579 88.4491,83.4099071 90.8511,92.1071782 C91.1961,93.3570914 91.1091,95.4178946 89.0031,94.1830165 C82.8151,90.5545595 76.7431,91.7463372 70.4351,93.7259512 C65.2571,95.3497358 60.4231,97.866602 54.9411,98.8017816 C51.1431,99.4512955 47.7511,97.3463895 44.0981,98.2815691 C39.0441,99.5765875 33.9971,98.2925948 28.9781,97.9598192 C24.5631,97.6661347 20.9681,93.9835516 15.5671,96.7750578 C10.9711,99.151597 5.0771,99.0954661 0.0421,101.203379" id="Fill-4" fill="#F1F6F8" mask="url(#mask-5)"></path>
                </g>
                <g id="Group-9" transform="translate(0.000000, 55.977528)">
                    <mask id="mask-7" fill="white">
                        <use xlink:href="#path-6"></use>
                    </mask>
                    <g id="Clip-8"></g>
                    <path d="M0.0421140289,44.9877101 C5.07879183,42.8837649 10.9747559,42.9397901 15.5722874,40.5677245 C20.9750871,37.7814728 24.5712851,41.457124 28.9877563,41.7502557 C34.0084288,42.0824049 39.0571106,43.3639807 44.1127947,42.0714 C47.767012,41.1379807 51.1601423,43.2389245 54.9594079,42.5906333 C60.4432346,41.6572139 65.2788454,39.1450854 70.4585709,37.5243573 C76.7686729,35.5484697 82.8426963,34.3589353 89.0327583,37.9805622 C91.13946,39.213116 91.226489,37.1561919 90.8813741,35.9086315 C88.4785737,27.2277317 93.4902431,21.94836 99.7083145,17.7074548 C102.404213,15.8696292 106.116449,16.1507555 109.106445,18.2667061 C111.945391,20.2756085 114.696307,20.2455951 117.337187,18.0576121 C119.59894,16.1847708 121.915712,15.922653 124.752657,16.7010027 C127.19147,17.3703034 128.958058,16.5709443 130.873696,14.0958324 C139.299503,3.21094247 151.305502,2.0114036 161.677958,11.9928876 C163.094429,13.3554998 164.037744,16.258804 166.693628,13.6666396 C168.972387,11.44164 166.947713,9.80190337 165.760317,8.07512764 C164.894029,6.8135609 162.558251,5.95717618 163.885693,4.02330742 C165.057083,2.31554022 167.008733,1.63023236 169.202464,2.41758607 C172.786658,3.70416404 176.067751,2.04441843 179.421868,1.26406787 C182.605929,0.522734831 185.352844,0.68480764 187.139439,3.96127955 C188.390856,6.25631056 190.377518,7.64593483 192.912362,8.38726787 C194.335836,8.80345483 196.391521,9.2076364 196.902691,10.2411007 C199.618596,15.7315672 200.95204,12.1299492 202.923697,9.70085798 C211.340501,-0.6678 229.153435,1.83732539 234.854334,14.2829164 C235.905684,16.5779474 236.435861,17.1161892 238.68461,15.775587 C245.488876,11.7187645 255.371168,13.2774647 260.737956,19.0510584 C261.191107,19.5392778 261.672267,20.0004849 262.142424,20.4716966 C266.631919,24.984724 266.708945,24.9747196 269.707944,19.5632885 C273.293138,13.0943825 275.12775,12.4130764 282.316144,12.7502279 C288.374162,13.035356 293.77096,14.4639978 298.280462,18.6128616 C299.761956,19.9764742 301.119408,19.8814315 302.734946,18.7619285 C306.327143,16.2758117 309.905335,16.7830396 314.047714,17.9745748 C318.892328,19.3682009 324.142077,19.593302 329.238775,19.8154018 C336.702261,20.1395474 343.445507,22.5286207 349.745606,26.2532939 C351.383151,27.221729 352.264445,27.6039007 354.057042,26.4423789 C360.840302,22.0424022 365.734932,23.2489443 370.259439,30.1580481 C370.974678,31.2495384 371.875978,31.7657703 373.086381,31.929844 C368.559873,37.3282692 362.408824,37.4173092 356.286785,36.5929389 C345.547207,35.1502908 335.260781,37.5663762 324.963351,39.7953775 C321.137076,40.6227492 317.632909,41.1299771 313.767621,39.8003798 C307.811637,37.7544607 301.807637,39.1260769 296.327812,41.5221533 C288.234115,45.0607429 280.015378,44.8896661 272.032719,42.4685784 C266.518882,40.7978279 261.413181,40.9368903 255.905346,41.6161955 C234.043064,44.3134072 212.638933,50.5642153 190.347508,49.9849551 C184.673618,49.837889 179.112765,49.5297506 173.578922,48.0270755 C166.409534,46.0802009 159.038078,46.0601919 151.876693,47.9670485 C140.247819,51.0614387 128.816011,48.4812796 117.296173,47.4708256 C108.364198,46.6874737 99.4522292,45.9041218 90.6723044,43.9882611 C88.4115513,43.49604 86.5389275,44.9016715 84.5082511,45.5989847 C80.9810761,46.8085281 77.3258585,48.3632265 73.9637385,45.1007609 C69.3341964,42.981809 64.6816465,43.3149587 60.0170927,44.9727034 C50.6289653,46.2642836 41.30686,46.2912957 31.7926907,46.1222198 C22.8747199,45.9631483 13.5896269,44.0622944 4.57462388,46.2442746 C2.81203674,46.6714665 0.963420931,47.542858 0.0421140289,44.9877101" id="Fill-7" fill="#DEECF2" mask="url(#mask-7)"></path>
                </g>
            </g>
        </g>
    </g>
</svg>
