<?xml version="1.0" encoding="UTF-8"?>
<svg width="205px" height="72px" viewBox="0 0 205 72" version="1.1" xmlns="http://www.w3.org/2000/svg" xmlns:xlink="http://www.w3.org/1999/xlink">
    <!-- Generator: Sketch 52.6 (67491) - http://www.bohemiancoding.com/sketch -->
    <title>cloud-9</title>
    <desc>Created with Sketch.</desc>
    <defs>
        <filter x="-8.0%" y="-25.0%" width="116.1%" height="150.0%" filterUnits="objectBoundingBox" id="filter-1">
            <feOffset dx="0" dy="5" in="SourceAlpha" result="shadowOffsetOuter1"></feOffset>
            <feGaussianBlur stdDeviation="1.5" in="shadowOffsetOuter1" result="shadowBlurOuter1"></feGaussianBlur>
            <feColorMatrix values="0.04     0     0     0     0
              0     0.04     0     0     0
              0     0     0.14     0     0
              0     0     0     0.55     0 " type="matrix" in="shadowBlurOuter1" result="shadowMatrixOuter1"></feColorMatrix>
            <feMerge>
                <feMergeNode in="shadowMatrixOuter1"></feMergeNode>
                <feMergeNode in="SourceGraphic"></feMergeNode>
            </feMerge>
        </filter>
        <polygon id="path-2" points="1.61691262e-05 0.571813084 198.411836 0.571813084 198.411836 63.9998526 1.61691262e-05 63.9998526"></polygon>
        <polygon id="path-4" points="1.61691262e-05 0.573183442 198.411836 0.573183442 198.411836 50.8191419 1.61691262e-05 50.8191419"></polygon>
    </defs>
    <g id="Landing-Page" stroke="none" stroke-width="1" fill="none" fill-rule="evenodd">
        <g id="UGG_LandingPage_Boost_v1d" transform="translate(-386.000000, -3528.000000)">
            <g id="cloud-9" filter="url(#filter-1)" transform="translate(389.000000, 3528.000000)">
                <g id="Group-3">
                    <mask id="mask-3" fill="white">
                        <use xlink:href="#path-2"></use>
                    </mask>
                    <g id="Clip-2"></g>
                    <path d="M196.766672,40.3259813 C193.996163,39.6985421 192.229591,37.8389533 190.218738,36.1486355 C188.841825,34.9912523 187.103256,34.4613084 185.225268,34.7549907 C184.201073,34.9146916 183.179262,34.760972 182.42616,34.0635514 C177.433286,29.44 171.581851,29.7970841 165.560016,31.0453832 C163.093369,31.5561869 160.670813,30.7253832 158.2846,30.4382804 C157.453447,30.3377944 157.073322,27.698243 156.212378,26.4032897 C152.424825,20.7072897 147.306235,16.9001869 140.375792,16.1973832 C138.25948,15.9832523 137.176301,15.373757 136.713953,13.2330467 C135.485992,7.552 129.062582,2.2071028 123.097349,1.70826168 C122.368675,1.81114019 121.964121,1.42893458 121.729372,0.791925234 C117.952543,0.705794393 114.134603,0.0251214953 110.475148,1.59401869 L110.491831,1.80635514 C109.515896,1.88231776 108.539366,1.95828037 107.562241,2.03364486 C107.38886,2.65450467 107.135642,3.10848598 106.417097,2.58452336 C105.996456,2.63715888 105.574624,2.68919626 105.153387,2.74123364 C103.881337,4.22100935 101.50704,3.66534579 100.351172,5.3604486 C98.2056659,6.01360748 96.3866629,7.15603738 95.005579,8.95401869 C94.4401569,9.19626168 93.8741389,9.43790654 93.3087168,9.68134579 C92.8988006,10.3494579 92.4459862,10.9954393 92.086118,11.689271 C91.246624,13.303028 90.5513156,14.9730093 88.1311419,14.1039252 C78.5511389,10.6616822 70.2479533,13.2336449 62.9910072,19.8525607 C61.5294892,21.1851963 60.2103695,21.7498318 58.2990162,21.5919252 C54.133124,21.2468037 50.737612,22.8300561 48.3633156,26.2896449 C47.6930311,27.2651963 46.9548246,27.4117383 45.9294383,27.5409346 C40.8072737,28.1887103 35.9281988,29.3102056 33.7523066,34.9033271 C33.3727766,35.8776822 32.7739892,35.5786168 32.0989383,35.1940187 C29.556624,33.7465421 26.4953605,34.3339065 23.8505671,33.032972 C22.5546838,32.3947664 20.8792707,32.7931215 19.6846749,33.897271 C17.4325192,35.9787664 14.6894174,36.557757 11.7878305,36.4255701 C6.82176767,36.201271 3.41195629,38.7618692 0.533010181,42.4212336 C-0.246902993,43.4117383 -0.21115449,44.2072523 0.908369462,44.8705794 C2.14884252,47.2152523 4.07985749,46.9754019 5.96559102,46.0154019 C7.46524072,45.2503925 8.54782455,45.4567477 9.6673485,46.6159252 C11.8396659,48.8642991 14.336103,49.0509159 16.9326359,47.4568972 C17.9371689,46.8402243 18.3542347,46.5070654 19.0602677,47.963514 C22.0416928,54.1051215 26.350579,55.4921869 32.3599024,52.3831028 C33.8577647,51.6079252 34.8599144,51.5176075 36.1861838,52.9106542 C40.4170192,57.3547664 46.3673575,57.6155514 50.9068216,53.4543551 C52.4076629,52.0780561 53.0088335,52.8269159 53.8822886,53.7683738 C59.6044323,59.9285234 67.7437707,59.3118505 73.7989713,55.1159626 C75.5995042,53.8682617 77.1980581,53.4388037 78.9765461,53.9842991 C83.2044024,55.2804486 87.4936269,55.7188785 91.8710311,55.524486 C93.1418904,55.4676636 94.0284533,55.8456822 94.946594,56.8451589 C103.285528,65.9188037 114.855531,66.3937196 124.157292,58.0886729 C125.539567,56.8553271 126.722247,56.4336449 128.574019,57.3948411 C132.094651,59.2251215 135.748148,59.2155514 138.730765,56.3014579 C140.674292,54.4029907 142.27225,54.057271 144.676932,55.4897944 C151.022292,59.268785 160.211444,58.0001495 164.617447,51.7329346 C165.192998,50.9140935 165.829917,50.2166729 167.007831,50.2435888 C174.293375,50.4122617 181.033756,47.287028 188.201331,46.6595888 C190.296193,46.4765607 192.189672,44.9896075 194.445402,45.4555514 C196.04336,45.4250467 197.837935,45.4884486 198.331265,43.5570841 C198.663726,42.2573458 197.933265,40.5903551 196.766672,40.3259813" id="Fill-1" fill="#F1F6F8" mask="url(#mask-3)"></path>
                </g>
                <path d="M1.19161677,44.9461829 C2.36592587,44.453486 3.51289782,43.8773821 4.71989265,43.4877523 C6.57406492,42.8890094 8.35870573,42.786538 9.94960931,44.3307586 C12.2899075,46.6006198 14.907143,46.6417276 17.4584127,44.759113 C18.7604933,43.7975497 19.5823908,43.9959391 20.7662085,44.9920567 C23.2313068,47.0659116 25.6399479,49.0468273 29.407721,48.6089407 C31.9518593,48.3134417 34.0526602,47.6872936 35.6197924,45.7838272 C36.7786501,44.3772282 37.5209133,44.1883709 38.3023993,45.9774506 C40.172023,50.2556327 48.9389299,51.9654757 52.4250114,48.072753 C54.4598467,45.8011044 57.7931967,45.4329222 60.4900665,44.0990063 C61.316124,43.6909079 61.6822042,44.3134814 62.1261358,44.9056709 C66.9190523,51.292858 70.5947111,51.9333044 77.2697313,47.580056 C77.5175485,47.418604 77.7469429,47.0659116 77.979903,47.070082 C82.2391507,47.1570635 85.7091865,45.28696 88.9599309,42.77641 C89.2451882,42.5559773 89.9256456,42.7120675 90.3701715,42.8574339 C93.8627902,43.9977264 97.3696718,44.0924529 100.829605,42.8550509 C102.261834,42.3432895 102.771731,43.2405102 103.474772,44.0680266 C106.728488,47.8964068 110.763689,49.6628474 115.850777,50.4558094 C122.778963,51.5359297 128.565526,49.550248 134.136363,46.0805178 C135.677941,45.1213375 136.716158,45.1892546 138.060433,46.1847765 C142.545509,49.5043741 147.461443,48.8275861 152.467708,47.7474657 C154.727184,47.2607265 157.17683,48.2199067 159.389357,47.2220018 C162.110593,45.9953235 164.477634,46.0245159 167.261864,47.5437144 C169.88207,48.9735483 172.544472,47.0933168 175.031559,45.9661311 C175.380999,45.8076578 175.653182,45.299471 175.977068,45.2845769 C181.460544,45.0313772 186.881621,44.359951 192.273578,43.2971078 C193.343293,43.0868031 194.099224,44.3087153 194.233533,45.529436 C191.98416,45.06474 190.094925,46.5464053 188.00601,46.7281134 C180.856155,47.3530699 174.133592,50.4665332 166.866069,50.2979319 C165.69176,50.2711225 165.055874,50.9657835 164.482388,51.7819803 C160.087643,58.0238009 150.921376,59.2874166 144.592825,55.5233789 C142.194286,54.0959281 140.600411,54.4414713 138.661256,56.3324266 C135.686261,59.2343936 132.042693,59.2439258 128.529869,57.4214834 C126.684017,56.4634947 125.504359,56.8835084 124.125021,58.1131655 C114.847623,66.3841587 103.306589,65.911122 94.9895565,56.8739762 C94.0737618,55.8784544 93.1894642,55.5019314 91.9218522,55.5579333 C87.5550388,55.7521524 83.2773683,55.3148615 79.0597207,54.0238407 C77.2863713,53.4805038 75.6913077,53.9088582 73.8959698,55.1510264 C67.8562413,59.3309074 59.7377005,59.9451402 54.0295836,53.8087698 C53.1577661,52.8716329 52.5593201,52.1257362 51.0623137,53.4959937 C46.5344488,57.6419161 40.5993146,57.3809714 36.3792899,52.9544441 C35.055815,51.5663137 34.0574145,51.6574656 32.562191,52.4295759 C26.5682226,55.5263578 22.2709406,54.144185 19.2971336,48.0268791 C18.5917161,46.5761935 18.1769045,46.9080341 17.1749383,47.5222669 C14.5844457,49.1099783 12.095576,48.9246956 9.92762073,46.6846226 C8.81095737,45.5300317 7.73173402,45.3250889 6.23532191,46.0864754 C4.35440677,47.0432726 2.42892019,47.2815782 1.19161677,44.9461829" id="Fill-4" fill="#DEECF2"></path>
                <g id="Group-8">
                    <mask id="mask-5" fill="white">
                        <use xlink:href="#path-4"></use>
                    </mask>
                    <g id="Clip-7"></g>
                    <path d="M196.766672,40.4226231 C193.996163,39.7936802 192.229591,37.9296349 190.218738,36.2352662 C188.841825,35.0751094 187.103256,34.5438954 185.225268,34.8382815 C184.201073,34.9983651 183.179262,34.8442771 182.42616,34.1451852 C177.433286,29.5105534 171.581851,29.8684932 165.560016,31.1197839 C163.093369,31.6318118 160.670813,30.799017 158.2846,30.5112261 C157.453447,30.4104993 157.073322,27.7646222 156.212378,26.4665656 C152.42542,20.756915 147.306235,16.9406885 140.375792,16.2362004 C138.25948,16.0215564 137.176301,15.4106004 136.713953,13.2647599 C135.485992,7.57009847 129.062582,2.21239216 123.097349,1.71235556 C122.368675,1.81548061 121.964121,1.43235904 121.729372,0.793823094 C117.952543,0.707485839 114.134603,0.0251816993 110.475148,1.59783878 L110.491831,1.8106841 C109.515896,1.88682876 108.539366,1.96297342 107.562241,2.03851852 C107.38886,2.66086623 107.135642,3.11593551 106.417097,2.59071721 C105.996456,2.64347887 105.57522,2.69564096 105.153387,2.74780305 C103.881337,4.23112505 101.50704,3.67412985 100.351768,5.37329499 C98.2056659,6.02801917 96.3866629,7.17318693 95.005579,8.97547712 C94.4401569,9.21830065 93.8747347,9.46052462 93.3087168,9.70454728 C92.8988006,10.3742606 92.446582,11.02179 92.086118,11.7172845 C91.246624,13.3349089 90.5513156,15.0088924 88.1311419,14.1377255 C78.5511389,10.6872331 70.2479533,13.2653595 62.9910072,19.9001377 C61.5294892,21.2359669 60.2103695,21.8019556 58.2990162,21.6436706 C54.133124,21.297722 50.737612,22.8847686 48.3633156,26.3526484 C47.6930311,27.3305377 46.9548246,27.4774309 45.9294383,27.6069368 C40.8072737,28.2562649 35.9281988,29.3804479 33.7523066,34.9869734 C33.3733725,35.9636636 32.7739892,35.6638815 32.0989383,35.2783617 C29.556624,33.8274161 26.4953605,34.4161882 23.8505671,33.1121359 C22.5546838,32.4724009 20.8792707,32.8717107 19.6846749,33.9785063 C17.4325192,36.06499 14.6900132,36.6453682 11.7878305,36.5128645 C6.82176767,36.2880279 3.41195629,38.8547625 0.533010181,42.5228967 C-0.246902993,43.5157752 -0.21115449,44.3131956 0.908369462,44.9781124 C2.08568683,44.4822728 3.23619282,43.9024941 4.44627964,43.5097795 C6.30460599,42.907817 8.09381856,42.8046919 9.68939341,44.358163 C12.035091,46.6431024 14.6596269,46.6838728 17.2174323,44.7892497 C18.5228485,43.8221525 19.3468515,44.0218074 20.5337018,45.0236793 C23.0045192,47.1107625 25.4193305,49.1043137 29.1967557,48.6642336 C31.7474114,48.3668497 33.853594,47.7361081 35.4247407,45.8210998 C36.5865671,44.4055285 37.3307317,44.2148671 38.1154114,46.0159582 C39.9886329,50.3214292 48.7779982,52.0421786 52.2730102,48.1246257 C54.3130581,45.837288 57.6555431,45.4679564 60.3593216,44.125532 C61.1868994,43.7142309 61.5545132,44.3407756 61.999582,44.9367425 C66.8041808,51.3652706 70.4898515,52.0092026 77.1813755,47.6287861 C77.4298275,47.4663041 77.6604054,47.110163 77.8933665,47.115559 C82.1635252,47.2030954 85.6424503,45.3210632 88.9015222,42.7938998 C89.1875102,42.5726606 89.8703066,42.7297464 90.3153755,42.8760401 C93.8169413,44.0236061 97.3328066,44.1183373 100.802199,42.8736418 C102.238097,42.3586161 102.748705,43.2609603 103.454142,44.0943547 C106.715597,47.9477542 110.761136,49.7248627 115.861256,50.5228828 C122.80719,51.6092932 128.608576,49.610346 134.19428,46.1196828 C135.739211,45.1543843 136.780088,45.2227346 138.127807,46.2246065 C142.624968,49.5653786 147.552899,48.8836741 152.571989,47.7972636 C154.837253,47.30682 157.293175,48.2721185 159.511965,47.2684479 C162.240172,46.032746 164.612681,46.0627242 167.404639,47.5922126 C170.031558,49.0305673 172.700184,47.1383425 175.193642,46.0045664 C175.544573,45.8450824 175.817453,45.333654 176.142169,45.3186649 C181.639097,45.0632505 187.074061,44.3875416 192.480426,43.3185185 C193.552881,43.1068723 194.31075,44.3359791 194.445402,45.5644863 C196.04336,45.5339085 197.837935,45.5974623 198.331265,43.6614693 C198.663726,42.3586161 197.933265,40.6876305 196.766672,40.4226231" id="Fill-6" fill="#F1F6F8" mask="url(#mask-5)"></path>
                </g>
            </g>
        </g>
    </g>
</svg>
