<?xml version="1.0" encoding="UTF-8"?>
<svg width="308px" height="101px" viewBox="0 0 308 101" version="1.1" xmlns="http://www.w3.org/2000/svg" xmlns:xlink="http://www.w3.org/1999/xlink">
    <!-- Generator: Sketch 52.6 (67491) - http://www.bohemiancoding.com/sketch -->
    <title>cloud-7</title>
    <desc>Created with Sketch.</desc>
    <defs>
        <filter x="-5.3%" y="-17.2%" width="110.6%" height="135.5%" filterUnits="objectBoundingBox" id="filter-1">
            <feOffset dx="0" dy="5" in="SourceAlpha" result="shadowOffsetOuter1"></feOffset>
            <feGaussianBlur stdDeviation="1.5" in="shadowOffsetOuter1" result="shadowBlurOuter1"></feGaussianBlur>
            <feColorMatrix values="0.04     0     0     0     0
              0     0.04     0     0     0
              0     0     0.14     0     0
              0     0     0     0.55     0 " type="matrix" in="shadowBlurOuter1" result="shadowMatrixOuter1"></feColorMatrix>
            <feMerge>
                <feMergeNode in="shadowMatrixOuter1"></feMergeNode>
                <feMergeNode in="SourceGraphic"></feMergeNode>
            </feMerge>
        </filter>
        <polygon id="path-2" points="0 0.540868421 301.347159 0.540868421 301.347159 92.9999144 0 92.9999144"></polygon>
        <polygon id="path-4" points="0.75598194 0.142951769 242.971851 0.142951769 242.971851 58 0.75598194 58"></polygon>
        <polygon id="path-6" points="0 0.544357895 301.347159 0.544357895 301.347159 77.8034247 0 77.8034247"></polygon>
    </defs>
    <g id="Landing-Page" stroke="none" stroke-width="1" fill="none" fill-rule="evenodd">
        <g id="UGG_LandingPage_Boost_v1d" transform="translate(-1276.000000, -3259.000000)">
            <g id="cloud-7" filter="url(#filter-1)" transform="translate(1279.000000, 3259.000000)">
                <g id="Group-3">
                    <mask id="mask-3" fill="white">
                        <use xlink:href="#path-2"></use>
                    </mask>
                    <g id="Clip-2"></g>
                    <path d="M296.89213,59.5687842 C295.66378,59.7107316 294.38903,60.0052316 293.560362,58.8288632 C293.397558,58.5971789 293.137887,58.4511526 292.861122,58.3948632 C292.855424,58.3940474 292.85054,58.3932316 292.845656,58.3916 C292.335267,58.2871789 291.815925,58.5294684 291.561138,58.9846789 C291.015747,59.9652579 290.214755,59.7776263 289.360852,58.6803895 C287.779219,56.6466263 285.494275,56.5087579 283.2191,56.2338368 C281.832831,56.5674947 279.892216,57.0341263 278.505133,57.3669684 C275.706545,59.0899158 271.090259,58.0840474 268.40075,54.8698368 C267.364507,54.5084421 266.253375,54.1201263 265.217133,53.7587316 C264.027855,54.0369158 262.849974,54.2188368 261.795823,53.3532842 C257.693181,51.2518105 252.862809,51.1212842 249.298232,47.2103895 C247.092249,44.7891263 244.231796,42.8067579 242.064885,40.1383105 C241.187375,39.0557579 240.010308,37.7039947 238.392044,37.8141263 C235.814868,37.9903368 234.010195,36.6230737 232.278782,35.1252842 C230.494459,33.5818105 228.456162,32.5180211 226.262389,31.8751789 C220.218319,30.1032842 214.116453,27.4136263 208.171693,32.2651263 C206.998696,33.2228632 206.672275,32.1966 206.231893,31.2527316 C204.235111,26.9747316 201.209413,23.6202053 197.12468,21.2030211 C196.348108,20.7429158 195.683871,19.9483368 195.196275,19.1643632 C187.786286,7.23344211 170.439602,7.23344211 160.526513,12.0327316 C155.011553,14.7028105 153.485273,14.3936263 150.331774,8.85196842 C148.031364,4.80891579 144.624707,1.9871 139.975046,1.06688947 C126.937763,-1.51508421 116.733257,5.55454737 113.934669,19.0134421 C113.666858,20.3056526 113.882572,21.6982053 112.678642,22.7497579 C109.784815,25.2778895 107.482777,28.4301 103.8311,30.1506 C99.8505612,32.0269158 96.6254291,34.9923105 94.3868846,38.8077579 C93.3514561,40.5723105 92.5187175,40.3104421 91.2097795,39.3257842 C90.2427283,38.5972842 89.0974075,38.1102579 88.0937256,37.4258105 C78.9653482,31.2086789 64.1103671,37.9373105 62.143704,47.5448632 C61.4485342,50.9426263 59.6471164,53.7807579 58.0272243,56.9027842 C52.6937903,51.2093895 46.588669,50.7297053 40.0374668,54.2539158 C38.4737418,55.0958105 37.5237849,54.4358368 36.3654399,53.6991789 C33.8859466,52.1214421 30.9888631,51.6531789 28.6558927,53.2374421 C24.489758,56.0666 19.7839305,57.8637842 15.6243078,60.5950474 C11.8855315,63.0505737 8.60748841,66.2362316 3.64117574,63.4291 C2.24432399,62.6410474 1.01434555,63.6681263 0.281730997,64.9293368 C-0.599034501,66.4467053 0.792119137,67.1556263 1.6159035,67.9257316 C3.42871752,69.6201263 6.02624313,69.7424947 8.08326199,70.9784158 C8.76215148,70.4938368 9.44999515,70.0892053 10.1427229,69.7563632 C9.44999515,70.0892053 8.76215148,70.4938368 8.08326199,70.9784158 C8.52608679,71.2468105 9.08857197,71.8447842 9.39464205,71.7330211 C13.0707391,70.4024684 16.8135854,71.9288105 20.5898065,71.4899158 C23.281758,71.1766526 26.6428307,70.4351 29.5366582,72.1694684 C34.9278873,75.4016263 40.4892458,75.5753895 46.0888631,72.6573105 C46.8515962,72.2592053 47.6656124,71.8717053 48.3607822,72.4394947 C53.5818819,76.7036263 59.3337202,75.0793895 65.0033429,73.9438105 C66.7103348,73.6019947 67.576448,73.6378895 68.3237148,75.5998632 C71.4055801,83.6924947 82.4135208,89.0122579 90.4519305,85.6406 C94.7491218,83.8385211 97.5623617,85.0785211 100.78668,87.2256789 C108.690777,92.4899684 117.138637,94.6697579 126.473774,91.5811789 C130.008232,90.4113368 132.59192,87.7371789 135.639596,85.7996789 C136.706771,85.1217579 137.414151,84.1909421 138.611569,85.7034158 C143.811505,92.2778632 150.850302,93.4199684 158.630669,92.3782053 C166.211602,91.3625474 173.205629,89.3230737 177.388044,82.1221 C178.335558,80.4905211 179.611936,80.4007842 181.183801,81.0126263 C185.362146,82.6393105 189.548631,83.3033632 193.655343,80.8168368 C195.01068,79.9961526 195.868653,80.6961 196.863381,81.5314684 C204.226971,87.7192316 215.139672,85.0002053 218.509699,74.7253368 C219.530475,71.6147316 220.786502,71.4262842 223.071445,73.4429158 C225.562335,75.6398368 228.998297,76.4956 231.240098,74.3476263 C234.10462,71.6033105 238.668809,73.2202053 239.029418,73.5734421 L239.030232,73.5726263 C242.567947,77.1637316 246.441036,76.0036789 250.347499,74.3753632 C252.165197,73.3393105 253.301564,73.1900211 256.10992,71.7950211 C258.670815,70.5126 260.411181,70.4995474 261.847106,70.4008368 C262.093753,70.3951263 262.337143,70.3649421 262.578092,70.3127316 C262.867068,70.2931526 263.127553,70.1601789 264.153213,70.4506 C265.46785,70.8364684 266.774346,71.2696526 268.191548,70.9882053 C270.272173,71.0020737 271.511106,72.4044158 272.897375,73.6933632 C277.420049,77.8963105 282.196696,77.6850211 285.985127,72.9183632 C286.974157,71.6718368 288.458108,71.4083368 289.375505,70.2735737 C289.375505,70.2735737 289.805305,69.7066 291.128895,69.8110211 L291.130523,69.8028632 C293.557106,69.8950474 295.137111,68.0122053 296.926319,66.6212842 C297.563693,66.1277316 298.263747,66.1203895 298.263747,66.1203895 L298.263747,66.1138632 C300.01551,66.0192316 301.427014,65.0158105 301.343984,63.3850474 C301.225952,61.0926789 299.28778,59.7914947 296.89213,59.5687842" id="Fill-1" fill="#F1F6F8" mask="url(#mask-3)"></path>
                </g>
                <g id="Group-6" transform="translate(8.000000, 35.000000)">
                    <mask id="mask-5" fill="white">
                        <use xlink:href="#path-4"></use>
                    </mask>
                    <g id="Clip-5"></g>
                    <path d="M0.75598194,35.9486451 C5.90205552,32.2644197 11.4748013,33.2496028 16.9857813,34.6505887 C18.2617344,34.9748986 19.0988247,34.6865324 19.9578582,34.1024479 C23.9352562,31.3968704 28.2889385,31.1346451 32.2533331,33.3958282 C36.337196,35.7264479 39.610788,34.0346451 43.185895,32.6459127 C45.8995304,31.5921099 48.0970957,29.4918563 51.3755639,29.5286169 C59.1109284,29.6152085 62.5438114,31.7489549 65.4191759,39.0308141 C66.0384602,40.5984479 66.8471057,42.4127859 68.5708615,42.2763634 C70.3734502,42.1334056 69.4518381,40.0486732 69.8175572,38.8510958 C71.0138649,34.9283352 78.6500789,31.143631 82.8802294,32.5732085 C85.8124836,33.5641099 88.6626542,34.8115183 90.7805739,37.2703915 C91.512012,38.1207859 92.4636943,38.7326451 93.646186,38.3960817 C95.0318548,38.0023352 94.7010823,36.7369549 94.9018214,35.7019408 C95.559303,32.3134338 95.5918114,28.5140254 99.7675104,27.1547014 C104.574684,25.5895183 108.84547,26.0763915 112.014223,30.5374901 C112.939086,31.8388141 113.547805,32.1704761 114.553126,30.4027014 C117.558524,25.1173493 122.484353,22.9198845 128.299286,22.4346451 C129.059982,22.3717437 130.041734,22.4419972 130.596002,22.8725042 C132.67735,24.4916028 134.028885,23.3904197 135.457627,21.9069268 C136.571852,20.7501944 137.551979,19.0485887 139.256229,19.0232648 C144.376296,18.9505606 145.835922,15.0898845 147.615755,11.4195465 C151.614283,3.17946197 165.115818,-2.05687606 173.764668,1.0473493 C178.672617,2.81022254 183.790246,3.78315211 187.929373,7.50495493 C192.751989,11.8410676 194.442423,17.2824479 194.72037,23.3904197 C194.833336,25.8738 195.585905,27.3540254 198.259718,27.1359127 C202.455734,26.793631 205.851233,28.4445887 208.959032,31.118307 C210.221169,32.2056028 211.558888,33.554307 213.389109,31.4221944 C216.94146,27.2837718 220.77826,26.8924761 225.27254,30.2687296 C226.668775,31.3168141 227.023116,32.0038282 228.59652,30.265462 C230.130915,28.5695746 232.58042,27.3311521 235.217661,28.1243634 C237.030002,28.6692366 238.70337,29.2051239 239.255199,25.956307 C240.115858,27.5190394 240.334477,28.4429549 240.916377,28.8873493 C245.048189,32.0414056 242.033852,33.9807296 239.835474,36.1634901 C238.414858,37.573462 237.35346,38.0235746 236.014116,35.9682507 C235.033176,34.4643352 233.768601,31.8951803 231.935129,32.7128986 C229.444176,33.8230676 230.877795,36.4869831 231.331286,38.5472085 C230.971256,38.1934901 226.414397,36.5752085 223.554474,39.3224479 C221.316273,41.4733493 217.885828,40.6164197 215.398938,38.4165042 C213.117664,36.3971239 211.863654,36.5850113 210.844517,39.7006732 C207.479902,49.9887296 196.584724,52.7122789 189.232959,46.5160817 C188.239828,45.6795746 187.383233,44.9786732 186.030072,45.801293 C181.930768,48.2895746 177.750193,47.6254338 173.578557,45.9965324 C172.009216,45.3838563 170.734888,45.4728986 169.788895,47.1067014 C165.613196,54.3174901 158.6304,56.3597437 151.061641,57.3767859 C143.293768,58.4207859 136.266273,57.276307 131.074688,50.6937155 C129.879193,49.1783634 129.173761,50.1112648 128.107487,50.7901099 C125.064704,52.7302507 122.485166,55.4072366 118.955571,56.5794901 C109.637049,59.6722789 101.201942,57.4895183 93.3105371,52.2180535 C90.0913967,50.0671521 87.2826742,48.8262789 82.9923833,50.6308141 C74.9668816,54.0062507 63.9766174,48.6800535 60.899701,40.5763915 C60.1536341,38.6117437 59.288099,38.5758 57.5846609,38.9180817 C51.9241425,40.0543915 46.1815405,41.6816592 40.9688247,37.4117155 C40.2747712,36.8431521 39.4628749,37.2303634 38.6997411,37.6298282 C33.1099284,40.5518845 27.5575003,40.3778845 22.1741157,37.1413211 C19.2865605,35.4045887 15.9300722,36.1471521 13.2424435,36.4608423 C9.47228629,36.9003352 5.73545017,35.3719127 2.06525619,36.7050958 C1.75967759,36.8161944 1.19890836,36.2174056 0.75598194,35.9486451" id="Fill-4" fill="#DEECF2" mask="url(#mask-5)"></path>
                </g>
                <path d="M260,61.1160296 C258.545639,62.5983284 257.411691,63.9051967 255,64 C256.483276,61.9267309 257.600813,60.5861942 260,61.1160296" id="Fill-7" fill="#DEECF2"></path>
                <path d="M249.986867,57.4194695 C249.805867,57.6094695 249.625867,57.7994695 249.443867,57.9874695 C249.294867,57.7714695 249.119867,57.5654695 249.014867,57.3274695 C248.989867,57.2694695 249.242867,56.9944695 249.287867,57.0134695 C249.534867,57.1144695 249.756867,57.2764695 249.986867,57.4194695" id="Fill-9" fill="#DEECF2"></path>
                <g id="Group-13">
                    <mask id="mask-7" fill="white">
                        <use xlink:href="#path-6"></use>
                    </mask>
                    <g id="Clip-12"></g>
                    <path d="M281.302662,71.6201747 L281.095088,71.7384063 L281.302662,71.6201747 Z M254.455595,63.8891432 C256.000597,61.96788 257.16464,60.7256274 259.66367,61.2166168 C258.148786,62.5902379 256.967649,63.8021116 254.455595,63.8891432 Z M249.560915,58.0555642 C249.438813,57.8773958 249.297174,57.7082589 249.211702,57.5128484 C249.191352,57.4652274 249.397298,57.2394379 249.433929,57.2550379 C249.634991,57.3379642 249.814888,57.4717958 250.002926,57.5867432 C249.855589,57.7452063 249.708252,57.9003853 249.560915,58.0555642 Z M301.34374,63.7939011 C301.226522,61.4867432 299.288349,60.1771642 296.891886,59.9530168 C295.664349,60.09588 294.388786,60.39228 293.560932,59.2083221 C293.397314,58.9751432 293.137643,58.8281747 292.860878,58.7715221 C292.85518,58.7707011 292.851109,58.76988 292.846225,58.7682379 C292.335837,58.6631432 291.815681,58.9069958 291.561708,59.3651432 C291.016317,60.3520484 290.214511,60.1632063 289.360608,59.0588905 C287.778975,57.0120063 285.494031,56.8732484 283.218856,56.5965537 C281.832587,56.9323642 279.892786,57.4020063 278.504888,57.7369958 C275.706301,59.4710589 271.090015,58.4587011 268.400506,55.2237537 C267.364263,54.8600274 266.253945,54.4692063 265.216888,54.10548 C264.027611,54.3854589 262.849729,54.5685537 261.795578,53.6974168 C257.692937,51.5823853 252.862565,51.4510168 249.298802,47.5148905 C247.092818,45.0780063 244.231551,43.0828484 242.065454,40.3971853 C241.187945,39.3084695 240.010064,37.9471642 238.391799,38.0580063 C235.814624,38.2353537 234.00995,36.8592695 232.278538,35.3518168 C230.494215,33.7983853 228.455918,32.7277326 226.262958,32.0807432 C220.218074,30.2974168 214.117023,27.5904063 208.171449,32.4732063 C206.999266,33.4371221 206.672031,32.4042379 206.231649,31.45428 C204.234867,27.14868 201.209169,23.7725116 197.12525,21.3397326 C196.348678,20.8766589 195.683627,20.0769537 195.196845,19.2879221 C187.786042,7.28002737 170.440171,7.28002737 160.526268,12.1111011 C155.011309,14.7975853 153.485029,14.4864063 150.33153,8.90899579 C148.03112,4.83985895 144.625277,1.99983789 139.975616,1.07369053 C126.937519,-1.52494105 116.733012,5.59030105 113.935239,19.1360274 C113.666613,20.4365747 113.882328,21.8381116 112.679212,22.8964484 C109.78457,25.4408905 107.483347,28.6134379 103.830856,30.3450379 C99.851131,32.2334589 96.6251849,35.2179853 94.3866404,39.0580484 C93.3512119,40.8339853 92.5184733,40.5704274 91.2103493,39.5794168 C90.2424841,38.8462168 89.0979774,38.3560484 88.0934814,37.6671853 C78.9659181,31.4099432 64.1109369,38.1819853 62.1442739,47.8515221 C61.44829,51.2712063 59.6468722,54.1276484 58.0269801,57.2698168 C52.6935461,51.5396905 46.5884248,51.0569116 40.0372226,54.6038589 C38.4734976,55.4511853 37.5235407,54.7869537 36.3660097,54.0455432 C33.8865164,52.4576274 30.9886189,51.9863432 28.6556485,53.5808274 C24.4903278,56.4282379 19.7836863,58.2370168 15.6240636,60.9859011 C11.8852873,63.4572695 8.6072442,66.66348 3.64093154,63.8382379 C2.2448938,63.0451011 1.01491536,64.0788063 0.281486792,65.3481537 C-0.599278706,66.8753116 0.791874933,67.5888063 1.6156593,68.36388 C3.42928733,70.0692063 6.02599892,70.1923642 8.08301779,71.4362589 C13.2373682,67.7341326 18.8198911,68.7243221 24.3389208,70.1324274 C25.6169261,70.4575642 26.4561768,70.1677326 27.3157779,69.5815011 C31.299573,66.8613537 35.6602577,66.5977958 39.6310286,68.8704695 C43.7222739,71.2129326 47.000317,69.5133537 50.5811741,68.1167432 C53.2991741,67.0575853 55.5002739,64.9466589 58.7848291,64.9836063 C66.531821,65.0706379 69.9710394,67.2160484 72.8510286,74.5349116 C73.4713089,76.1105116 74.281255,77.9332484 76.0077833,77.7961326 C77.8132712,77.6532695 76.8901768,75.5571221 77.2556701,74.3534589 C78.4547159,70.4107642 86.1023978,66.6076484 90.339352,68.0444905 C93.2771364,69.0396063 96.1310771,70.2941747 98.2524032,72.7655432 C98.9850178,73.6202589 99.9382307,74.2352274 101.122624,73.8961326 C102.510522,73.5003853 102.179217,72.2285747 102.380279,71.1891221 C103.039632,67.7825747 103.072193,63.96468 107.254608,62.5984484 C112.069514,61.0253116 116.346355,61.5138379 119.521018,65.9967853 C120.447368,67.3055432 121.057066,67.6388905 122.064004,65.8621326 C125.073422,60.5507432 130.007988,58.3412905 135.83146,57.8535853 C136.594193,57.7903642 137.577525,57.8609747 138.13187,58.2944905 C140.217379,59.9209958 141.571088,58.8142168 143.002128,57.3231853 C144.118144,56.1605747 145.099848,54.4503221 146.806026,54.4256905 C151.934328,54.3526168 153.396301,50.4715011 155.17981,46.7825116 C159.183956,38.5005537 172.70802,33.2376063 181.369967,36.3584274 C186.28581,38.1294379 191.41167,39.1073116 195.557454,42.8480274 C200.38864,47.2069958 202.081794,52.6760274 202.359374,58.8133958 C202.472522,61.3102168 203.226301,62.7979642 205.904414,62.5787432 C210.10718,62.2347221 213.508953,63.8940695 216.620937,66.5813747 C217.885918,67.6741958 219.224975,69.0305747 221.058139,66.8868063 C224.61539,62.7273537 228.459174,62.3340695 232.960684,65.7266589 C234.359163,66.7808905 234.714888,67.4713958 236.29001,65.7241958 C237.827686,64.0196905 240.280317,62.7757958 242.922613,63.5722168 C244.737056,64.1198589 246.413929,64.6584695 246.965832,61.3931432 C247.828689,62.9638168 248.046845,63.8932484 248.629681,64.33908 C252.768139,67.5091642 249.748953,69.4583432 247.547039,71.6521958 C246.124139,73.0701537 245.061848,73.5209116 243.719535,71.4567853 C242.737018,69.9435853 241.470409,67.3621958 239.634802,68.1840695 C237.139029,69.3007011 238.575767,71.9781537 239.029988,74.0472063 C242.567702,77.66148 246.441605,76.4947642 250.348069,74.8551221 C252.164953,73.8123853 253.302134,73.6621326 256.110489,72.2581326 C258.67057,70.9674379 260.410937,70.9543011 261.847675,70.8549537 C262.093508,70.8492063 262.336899,70.8188274 262.577848,70.76628 C262.867638,70.7465747 263.128123,70.6127432 264.153783,70.9050379 C265.467605,71.2933958 266.774101,71.7293747 268.192118,71.4461116 C270.271929,71.4600695 271.511675,72.8714589 272.897945,74.1687221 C277.419805,78.3987853 282.197266,78.1861326 285.984883,73.3887221 C286.974727,72.1341537 288.457864,71.8689537 289.37526,70.7268695 C289.37526,70.7268695 289.805061,70.1562379 291.128651,70.2613326 L291.130279,70.2531221 C293.557675,70.3459011 295.136867,68.4509116 296.926074,67.0510168 C297.564263,66.55428 298.263503,66.5468905 298.263503,66.5468905 L298.263503,66.5403221 C300.015266,66.44508 301.427584,65.4351853 301.34374,63.7939011 Z" id="Fill-11" fill="#F1F6F8" mask="url(#mask-7)"></path>
                </g>
            </g>
        </g>
    </g>
</svg>
