<?xml version="1.0" encoding="UTF-8"?>
<svg width="12px" height="16px" viewBox="0 0 12 16" version="1.1" xmlns="http://www.w3.org/2000/svg" xmlns:xlink="http://www.w3.org/1999/xlink">
    <!-- Generator: Sketch 52.6 (67491) - http://www.bohemiancoding.com/sketch -->
    <title>bell - anticon</title>
    <desc>Created with Sketch.</desc>
    <g id="Design" stroke="none" stroke-width="1" fill="none" fill-rule="evenodd">
        <g id="UGG_Notifications_v1a" transform="translate(-159.000000, -22.000000)" fill="#FFFFFF">
            <path d="M170.4375,35 C170.593751,35 170.726562,35.054687 170.835938,35.1640625 C170.945313,35.273438 171,35.4062492 171,35.5625 C171,35.7187508 170.945313,35.851562 170.835938,35.9609375 C170.726562,36.070313 170.593751,36.125 170.4375,36.125 L166.125,36.125 L166.125,36.875 C166.125,37.1875016 166.015626,37.4531239 165.796875,37.671875 C165.578124,37.8906261 165.312502,38 165,38 C164.687498,38 164.421876,37.8906261 164.203125,37.671875 C163.984374,37.4531239 163.875,37.1875016 163.875,36.875 L163.875,36.125 L159.5625,36.125 C159.406249,36.125 159.273438,36.070313 159.164062,35.9609375 C159.054687,35.851562 159,35.7187508 159,35.5625 C159,35.4062492 159.054687,35.273438 159.164062,35.1640625 C159.273438,35.054687 159.406249,35 159.5625,35 L160,35 L160,28 C160,26.7187436 160.427079,25.6041714 161.28125,24.65625 C162.135421,23.7083286 163.187494,23.1666673 164.4375,23.03125 L164.4375,22.5625 C164.4375,22.4062492 164.492187,22.273438 164.601562,22.1640625 C164.710938,22.054687 164.843749,22 165,22 C165.156251,22 165.289062,22.054687 165.398438,22.1640625 C165.507813,22.273438 165.5625,22.4062492 165.5625,22.5625 L165.5625,23.03125 C166.812506,23.1666673 167.864579,23.7083286 168.71875,24.65625 C169.572921,25.6041714 170,26.7187436 170,28 L170,35 L170.4375,35 Z M168.875,35 L168.875,28 C168.875,26.927078 168.4974,26.0130246 167.742188,25.2578125 C166.986975,24.5026004 166.072922,24.125 165,24.125 C163.927078,24.125 163.013025,24.5026004 162.257812,25.2578125 C161.5026,26.0130246 161.125,26.927078 161.125,28 L161.125,35 L168.875,35 Z" id="bell---anticon"></path>
        </g>
    </g>
</svg>