<?xml version="1.0" encoding="UTF-8"?>
<svg width="65px" height="44px" viewBox="0 0 65 44" version="1.1" xmlns="http://www.w3.org/2000/svg" xmlns:xlink="http://www.w3.org/1999/xlink">
    <!-- Generator: Sketch 52.6 (67491) - http://www.bohemiancoding.com/sketch -->
    <title>icon-livegame</title>
    <desc>Created with Sketch.</desc>
    <g id="Landing-Page" stroke="none" stroke-width="1" fill="none" fill-rule="evenodd">
        <g id="UGG_LandingPage_Boost_v1d" transform="translate(-1275.000000, -2587.000000)">
            <g id="icon-livegame" transform="translate(1275.000000, 2587.000000)">
                <path d="M30.5001314,28.4713293 C29.0267155,28.2306213 27.7396359,27.5410638 26.7516005,26.5669045 C25.2025739,25.0396833 24.3915297,22.8107275 24.7692996,20.5004974 C25.0165208,18.9880019 25.736096,17.6709045 26.7513173,16.6732408 C28.2759898,15.1749045 30.468981,14.3981258 32.7404146,14.7690992 C34.252627,15.0163204 35.5697244,15.7358957 36.5673881,16.7514001 C38.0654412,18.2760727 38.8425031,20.4690638 38.4712465,22.7404974 C38.2305385,24.2139134 37.540981,25.500993 36.5668217,26.4887452 C35.0396005,28.038055 32.8106447,28.8490992 30.5001314,28.4713293 M39.1667509,14.1520373 C37.6432111,12.6098072 35.6368394,11.5172762 33.3334058,11.140639 C29.848804,10.5708691 26.4851226,11.7687452 24.1519544,14.073878 C22.6097244,15.5974178 21.5169102,17.6037895 21.1405562,19.9069399 C20.5645562,23.4309045 21.7961314,26.8305505 24.1522376,29.1662673 C25.6661491,30.6671523 27.6430695,31.7299488 29.9068571,32.0997895 C33.4308217,32.6760727 36.8304677,31.4444974 39.1664677,29.0883912 C40.6670695,27.5744797 41.729866,25.5978426 42.0999898,23.3334886 C42.6697598,19.84917 41.4718837,16.4852054 39.1667509,14.1520373" id="Fill-1" fill="#FF4E50"></path>
                <path d="M20.5421593,10.5186217 C19.7973805,9.7738429 18.5706195,9.84010839 17.9099469,10.6602146 C15.464354,13.6956836 14,17.5543739 14,21.755719 C14,25.9570641 15.464354,29.8157544 17.9099469,32.8506571 C18.5706195,33.6710464 19.7973805,33.7370287 20.5421593,32.99225 C21.1886726,32.3460199 21.2235044,31.323719 20.651469,30.6106571 C18.7051327,28.1857367 17.5401062,25.1069402 17.5401062,21.755719 C17.5401062,18.4042146 18.7051327,15.3254181 20.651469,12.9004978 C21.2235044,12.187719 21.1886726,11.1651349 20.5421593,10.5186217" id="Fill-3" fill="#FF9A9B"></path>
                <path d="M43.5131619,10.5188916 C42.8700468,11.1620067 42.8318167,12.1777943 43.3962061,12.8914226 C45.3054451,15.304166 46.4455513,18.3532279 46.4455513,21.6690509 C46.4455513,24.9848739 45.3054451,28.0339359 43.3962061,30.4466792 C42.8318167,31.1600244 42.8700468,32.1760952 43.5131619,32.8192102 C44.2604893,33.5665376 45.4937636,33.4977235 46.1513212,32.6702545 C48.5516044,29.6495111 49.9856574,25.8270686 49.9856574,21.6690509 C49.9856574,17.5110332 48.5516044,13.6885907 46.1513212,10.6678474 C45.4937636,9.84037836 44.2604893,9.7715642 43.5131619,10.5188916" id="Fill-5" fill="#FF9A9B"></path>
                <path d="M15.5961062,5.52129317 L15.5952566,5.52044361 C14.8717168,4.79690379 13.680354,4.83031971 13.0120354,5.60483299 C9.26576991,9.94607193 7,15.6004436 7,21.784656 C7,27.9685852 9.26576991,33.6226737 13.0120354,37.9641958 C13.680354,38.7389923 14.8717168,38.7718418 15.5952566,38.048302 L15.5961062,38.0474525 C16.2550796,37.388479 16.2828319,36.3375764 15.6748319,35.6310277 C12.475115,31.9127976 10.5401062,27.0748507 10.5401062,21.784656 C10.5401062,16.4941781 12.475115,11.6562312 15.6748319,7.93800113 C16.2828319,7.23145246 16.2550796,6.18026662 15.5961062,5.52129317" id="Fill-7" fill="#E4787A"></path>
                <path d="M48.5162211,5.52062154 L48.5153716,5.5214711 C47.8586636,6.17817906 47.8286459,7.22511711 48.4312654,7.93194897 C51.591053,11.6397012 53.4991592,16.447064 53.4991592,21.7007277 C53.4991592,26.9543915 51.591053,31.7614711 48.4312654,35.4692233 C47.8286459,36.1760552 47.8583804,37.22271 48.5153716,37.8797012 L48.5162211,37.8805507 C49.2417433,38.6060729 50.4376371,38.5706746 51.1042565,37.7907808 C54.8043627,33.4611525 57.0392654,27.8421791 57.0392654,21.7007277 C57.0392654,15.5589932 54.8043627,9.93973658 51.1042565,5.61039145 C50.4376371,4.83049765 49.2417433,4.79509942 48.5162211,5.52062154" id="Fill-9" fill="#E4787A"></path>
                <path d="M10.6593982,0.519585854 L10.6585487,0.518736297 C9.93897345,-0.200838924 8.76176991,-0.167422995 8.08410619,0.591798244 C3.05642478,6.2246478 1.59339208e-12,13.6551611 1.59339208e-12,21.799869 C1.59339208e-12,29.9440106 3.05642478,37.3748071 8.08410619,43.0076567 C8.76176991,43.7665947 9.93897345,43.8002938 10.6585487,43.0807186 L10.6593982,43.079869 C11.3223363,42.416931 11.352354,41.3524354 10.7282124,40.6535328 C6.25784071,35.6459575 3.54010619,29.0403646 3.54010619,21.799869 C3.54010619,14.5588071 6.25784071,7.95321417 10.7282124,2.94592214 C11.352354,2.2467363 11.3223363,1.18252391 10.6593982,0.519585854" id="Fill-11" fill="#C64C4F"></path>
                <path d="M53.5187189,0.518709694 L53.5178693,0.519559252 C52.8566304,1.18079819 52.8246304,2.24161235 53.4448074,2.94136456 C57.8738339,7.93902828 60.5632498,14.5137539 60.5632498,21.716869 C60.5632498,28.919984 57.8738339,35.4947097 53.4448074,40.4923734 C52.8246304,41.1924088 52.8566304,42.253223 53.5178693,42.9141787 L53.5187189,42.9153115 C54.23971,43.6363026 55.4203118,43.6011876 56.0968428,42.8377185 C61.0786481,37.21563 64.1036392,29.8196654 64.1036392,21.716869 C64.1036392,13.6140725 61.0786481,6.21839111 56.0968428,0.596019429 C55.420595,-0.167166412 54.23971,-0.202281456 53.5187189,0.518709694" id="Fill-14" fill="#C64C4F"></path>
            </g>
        </g>
    </g>
</svg>