<?xml version="1.0" encoding="UTF-8"?>
<svg width="64px" height="55px" viewBox="0 0 64 55" version="1.1" xmlns="http://www.w3.org/2000/svg" xmlns:xlink="http://www.w3.org/1999/xlink">
    <!-- Generator: Sketch 52.6 (67491) - http://www.bohemiancoding.com/sketch -->
    <title>icon-customize</title>
    <desc>Created with Sketch.</desc>
    <g id="Landing-Page" stroke="none" stroke-width="1" fill="none" fill-rule="evenodd">
        <g id="UGG_LandingPage_Boost_v1d" transform="translate(-1275.000000, -2834.000000)" fill="#C98DFF">
            <g id="Group-24" transform="translate(1146.000000, 2834.000000)">
                <path d="M191.654584,6.74718584 C192.24446,6.74718584 192.722761,7.22520354 192.722761,7.81507965 L192.722761,9.4779469 C192.722761,10.067823 192.24446,10.5458407 191.654584,10.5458407 L165.474336,10.5458407 L165.474336,16.2248496 C165.474336,16.8147257 164.996035,17.2930265 164.405876,17.2930265 L159.162973,17.2930265 C158.573097,17.2930265 158.094796,16.8147257 158.094796,16.2248496 L158.094796,10.5458407 L130.06846,10.5458407 C129.478301,10.5458407 129,10.067823 129,9.4779469 L129,7.81507965 C129,7.22520354 129.478301,6.74718584 130.06846,6.74718584 L158.094796,6.74718584 L158.094796,1.06789381 C158.094796,0.478017699 158.573097,-4.79616347e-13 159.162973,-4.79616347e-13 L164.405876,-4.79616347e-13 C164.996035,-4.79616347e-13 165.474336,0.478017699 165.474336,1.06789381 L165.474336,6.74718584 L191.654584,6.74718584 Z M191.654584,25.3815788 C192.24446,25.3815788 192.722761,25.8595965 192.722761,26.4494726 L192.722761,28.1123398 C192.722761,28.7022159 192.24446,29.1802336 191.654584,29.1802336 L184.227186,29.1802336 L184.227186,34.8592425 C184.227186,35.4491186 183.748885,35.9274195 183.159009,35.9274195 L177.916106,35.9274195 C177.325947,35.9274195 176.847929,35.4491186 176.847929,34.8592425 L176.847929,29.1802336 L130.06846,29.1802336 C129.478301,29.1802336 129,28.7022159 129,28.1123398 L129,26.4494726 C129,25.8595965 129.478301,25.3815788 130.06846,25.3815788 L176.847929,25.3815788 L176.847929,19.7025699 C176.847929,19.1126938 177.325947,18.6343929 177.916106,18.6343929 L183.159009,18.6343929 C183.748885,18.6343929 184.227186,19.1126938 184.227186,19.7025699 L184.227186,25.3815788 L191.654584,25.3815788 Z M191.654584,44.016 C192.24446,44.016 192.722761,44.4943009 192.722761,45.084177 L192.722761,46.7467611 C192.722761,47.3366372 192.24446,47.8146549 191.654584,47.8146549 L148.824142,47.8146549 L148.824142,53.4477876 C148.824142,54.0376637 148.345841,54.5159646 147.755965,54.5159646 L142.513062,54.5159646 C141.923186,54.5159646 141.444885,54.0376637 141.444885,53.4477876 L141.444885,47.8146549 L130.06846,47.8146549 C129.478301,47.8146549 129,47.3366372 129,46.7467611 L129,45.084177 C129,44.4943009 129.478301,44.016 130.06846,44.016 L141.444885,44.016 L141.444885,38.2908319 C141.444885,37.7009558 141.923186,37.2229381 142.513062,37.2229381 L147.755965,37.2229381 C148.345841,37.2229381 148.824142,37.7009558 148.824142,38.2908319 L148.824142,44.016 L191.654584,44.016 Z" id="icon-customize"></path>
            </g>
        </g>
    </g>
</svg>