<?xml version="1.0" encoding="UTF-8"?>
<svg width="64px" height="64px" viewBox="0 0 64 64" version="1.1" xmlns="http://www.w3.org/2000/svg" xmlns:xlink="http://www.w3.org/1999/xlink">
    <!-- Generator: Sketch 52.6 (67491) - http://www.bohemiancoding.com/sketch -->
    <title>icon-combo</title>
    <desc>Created with Sketch.</desc>
    <g id="Landing-Page" stroke="none" stroke-width="1" fill="none" fill-rule="evenodd">
        <g id="UGG_LandingPage_Boost_v1d" transform="translate(-582.000000, -2577.000000)" fill="#31DB9E">
            <path d="M605.165902,2620.98164 L602.018361,2617.8341 L598.337237,2621.51522 C597.587818,2622.26464 596.68853,2622.63934 595.639344,2622.63934 C594.590159,2622.63934 593.69087,2622.26464 592.941452,2621.51522 L583.124122,2611.69789 C582.374704,2610.94847 582,2610.04919 582,2609 C582,2607.95081 582.374704,2607.05153 583.124122,2606.30211 L592.941452,2596.48478 C593.69087,2595.73536 594.590159,2595.36066 595.639344,2595.36066 C596.68853,2595.36066 597.587818,2595.73536 598.337237,2596.48478 L608.154567,2606.30211 C608.903985,2607.05153 609.278689,2607.95081 609.278689,2609 C609.278689,2610.04919 608.903985,2610.94847 608.154567,2611.69789 L604.416487,2615.43597 L607.564028,2618.58351 L611.302108,2614.84543 C612.051526,2614.09601 612.950814,2613.72131 614,2613.72131 C615.049186,2613.72131 615.948474,2614.09601 616.697892,2614.84543 L620.411991,2618.55953 L623.559532,2615.41199 L619.845433,2611.69789 C619.096015,2610.94847 618.721311,2610.04919 618.721311,2609 C618.721311,2607.95081 619.096015,2607.05153 619.845433,2606.30211 L623.583513,2602.56403 L620.435972,2599.41649 L616.697892,2603.15457 C615.948474,2603.90399 615.049186,2604.27869 614,2604.27869 C612.950814,2604.27869 612.051526,2603.90399 611.302108,2603.15457 L601.484778,2593.33724 C600.735359,2592.58782 600.360656,2591.68853 600.360656,2590.63934 C600.360656,2589.59016 600.735359,2588.69087 601.484778,2587.94145 L611.302108,2578.12412 C612.051526,2577.3747 612.950814,2577 614,2577 C615.049186,2577 615.948474,2577.3747 616.697892,2578.12412 L626.515222,2587.94145 C627.264641,2588.69087 627.639344,2589.59016 627.639344,2590.63934 C627.639344,2591.68853 627.264641,2592.58782 626.515222,2593.33724 L622.834098,2597.01836 L625.981639,2600.1659 L629.662763,2596.48478 C630.412182,2595.73536 631.31147,2595.36066 632.360656,2595.36066 C633.409841,2595.36066 634.30913,2595.73536 635.058548,2596.48478 L644.875878,2606.30211 C645.625296,2607.05153 646,2607.95081 646,2609 C646,2610.04919 645.625296,2610.94847 644.875878,2611.69789 L635.058548,2621.51522 C634.30913,2622.26464 633.409841,2622.63934 632.360656,2622.63934 C631.31147,2622.63934 630.412182,2622.26464 629.662763,2621.51522 L625.957658,2617.81012 L622.810117,2620.95766 L626.515222,2624.66276 C627.264641,2625.41218 627.639344,2626.31147 627.639344,2627.36066 C627.639344,2628.40984 627.264641,2629.30913 626.515222,2630.05855 L616.697892,2639.87588 C615.948474,2640.6253 615.049186,2641 614,2641 C612.950814,2641 612.051526,2640.6253 611.302108,2639.87588 L601.484778,2630.05855 C600.735359,2629.30913 600.360656,2628.40984 600.360656,2627.36066 C600.360656,2626.31147 600.735359,2625.41218 601.484778,2624.66276 L605.165902,2620.98164 Z M623.81733,2590.63934 L614,2580.82201 L604.18267,2590.63934 L614,2600.45667 L623.81733,2590.63934 Z M642.177986,2609 L632.360656,2599.18267 L622.543326,2609 L632.360656,2618.81733 L642.177986,2609 Z M605.456674,2609 L595.639344,2599.18267 L585.822014,2609 L595.639344,2618.81733 L605.456674,2609 Z M623.81733,2627.36066 L614,2617.54333 L604.18267,2627.36066 L614,2637.17799 L623.81733,2627.36066 Z" id="icon-combo"></path>
        </g>
    </g>
</svg>