<svg xmlns="http://www.w3.org/2000/svg" width="1920" height="1379" viewBox="0 0 1920 1379"><defs><filter id="pgo6a" width="200%" height="200%" x="-50%" y="-50%"><feGaussianBlur in="SourceGraphic" result="FeGaussianBlur1068Out" stdDeviation="3.5 3.5"/></filter><mask id="pgo6b"><path fill="#fff" d="M0 0c22.085 24.471 41.431 47.975 56.574 69.124 63.084 88.102 205.093 183.82 315.577 212.708 110.482 28.886 285.28 109.411 388.441 178.944 103.159 69.532 207.026 119.37 337.978 88.369 130.952-31 240.813-14.418 351.295 14.468 110.484 28.888 224.367.076 253.077-64.025 28.708-64.102 119.885-133.672 202.613-154.602 4.973-1.258 9.79-2.76 14.445-4.49v705.037a206.375 206.375 0 0 0-3.767 6.465c-38.37 68.761-170.786 137.375-294.258 152.477-123.47 15.101-303.194 68.238-399.384 118.081-96.19 49.844-266.161 70.633-377.713 46.197-111.55-24.435-303.84-32.072-427.313-16.97-123.47 15.101-277.031-18.537-341.244-74.75-19.276-16.875-45.725-34.63-76.321-51.879z"/></mask></defs><g><g><path fill="#eff2f8" d="M0 0c22.085 24.471 41.431 47.975 56.574 69.124 63.084 88.102 205.093 183.82 315.577 212.708 110.482 28.886 285.28 109.411 388.441 178.944 103.159 69.532 207.026 119.37 337.978 88.369 130.952-31 240.813-14.418 351.295 14.468 110.484 28.888 224.367.076 253.077-64.025 28.708-64.102 119.885-133.672 202.613-154.602 4.973-1.258 9.79-2.76 14.445-4.49v705.037a206.375 206.375 0 0 0-3.767 6.465c-38.37 68.761-170.786 137.375-294.258 152.477-123.47 15.101-303.194 68.238-399.384 118.081-96.19 49.844-266.161 70.633-377.713 46.197-111.55-24.435-303.84-32.072-427.313-16.97-123.47 15.101-277.031-18.537-341.244-74.75-19.276-16.875-45.725-34.63-76.321-51.879z"/><path fill="#0b0b23" fill-opacity=".17" stroke="#0b0b23" stroke-opacity=".17" stroke-width="4" d="M-7 1397V-18h1934v1415zm7-160.846c30.596 17.248 57.044 35.004 76.32 51.878 64.214 56.214 217.775 89.852 341.245 74.75 123.473-15.1 315.763-7.464 427.313 16.971 111.552 24.436 281.522 3.647 377.713-46.197 96.19-49.843 275.913-102.98 399.384-118.081 123.472-15.102 255.888-83.716 294.258-152.477a206.375 206.375 0 0 1 3.767-6.465V351.497a140.031 140.031 0 0 1-14.445 4.49c-82.728 20.929-173.905 90.5-202.613 154.601-28.71 64.1-142.593 92.913-253.077 64.025-110.482-28.886-220.343-45.468-351.295-14.468-130.952 31-234.82-18.837-337.978-88.369-103.16-69.533-277.959-150.058-388.441-178.944C261.667 263.944 119.658 168.226 56.574 80.124 41.431 58.975 22.085 35.47 0 11z" filter="url(#pgo6a)" mask="url(&quot;#pgo6b&quot;)"/></g></g></svg>